<svg xmlns="http://www.w3.org/2000/svg" style="display: none;">

    <symbol id="arrow_bottom" width="11" height="7" viewBox="0 0 11 7">
        <path d="M0.917969 1.35059L5.24229 5.67491L9.56662 1.35059"/>
    </symbol>

    <!-- <symbol id="cons" width="67" height="70" viewBox="0 0 67 70" fill="none" preserveAspectRatio="xMidYMid meet">
        
        <path d="M46.135 18.9722C47.1515 20.897 47.6865 23.0892 47.6865 25.4418C47.6865 33.3016 41.3202 39.6643 33.456 39.6643C25.5917 39.6643 19.2255 33.3016 19.2255 25.4418C19.2255 23.1427 19.7605 20.9505 20.7769 18.9722"/>
        <path d="M46.1354 18.9701H20.7238L21.6333 3.89213L23.6127 3.35746C29.9255 1.59301 36.5593 1.53952 42.8721 3.2505L45.2795 3.89213L46.1354 18.9701Z"/>
        <path d="M27.6271 10.7939H38.8617"/>
        <path d="M33.239 16.4046V5.17627"/>
        <path d="M2 56.4515C2 49.3402 16.1235 43.5122 33.4569 43.5122C50.7903 43.5122 64.8068 49.2867 64.8068 56.4515V68.0005H47.5269H19.3869H2V56.4515Z"/>
        <path d="M33.4028 68.0005L22.4891 44.3677"/>
        <path d="M33.4025 68.0005L44.3697 44.3677"/>
    </symbol> -->

    <symbol id="cons" width="42" height="42" viewBox="0 0 42 42" fill="none">
        <path d="M27.681 11.3833C28.2909 12.5382 28.6119 13.8535 28.6119 15.2651 28.6119 19.981 24.7921 23.7986 20.0736 23.7986 15.355 23.7986 11.5353 19.981 11.5353 15.2651 11.5353 13.8856 11.8563 12.5703 12.4661 11.3833"/>
        <path d="M27.6812 11.3821H12.4343L12.98 2.3353 14.1676 2.0145C17.9553.9558 21.9356.9237 25.7233 1.9503L27.1677 2.3353 27.6812 11.3821Z"/>
        <path d="M16.5763 6.4763H23.317"/>
        <path d="M19.9434 9.8428V3.1058"/>
        <path d="M1.2 33.8709C1.2 29.6041 9.6741 26.1073 20.0741 26.1073 30.4742 26.1073 38.8841 29.572 38.8841 33.8709V40.8003H28.5161 11.6321 1.2V33.8709Z"/>
        <path d="M20.0417 40.8003 13.4935 26.6206"/>
        <path d="M20.0415 40.8003 26.6218 26.6206"/>
    </symbol>

    <symbol id="det_otdelen" width="41" height="71" viewBox="0 0 41 71" fill="none">
        <path d="M24.0325 18.1325C28.5041 18.1325 32.129 14.5211 32.129 10.0662C32.129 5.61137 28.5041 2 24.0325 2C19.5609 2 15.936 5.61137 15.936 10.0662C15.936 14.5211 19.5609 18.1325 24.0325 18.1325Z"/>
        <path d="M35.5842 43.2953L29.5675 47.6614L26.8934 49.5855L24.9993 50.9545C21.991 53.1376 17.8684 52.8785 15.1572 50.3625L5.05507 40.9642C1.15537 37.3381 0.969686 31.2329 4.60941 27.3848C6.50355 25.3868 9.02909 24.3878 11.5917 24.3878C13.1888 24.3878 14.7858 24.7948 16.1971 25.5718C18.3512 23.7217 21.0624 22.5747 23.9965 22.5747C30.9788 22.5747 36.6241 28.7539 36.6241 36.4131V42.4813L29.5303 47.6244L26.8563 49.5485C26.2992 49.9185 25.7049 50.1035 25.0735 50.1035C24.3679 50.1035 23.6251 49.8445 23.068 49.3635C21.731 48.2164 21.6566 46.1814 22.9194 44.9233L29.4561 38.4112C29.4932 38.3742 29.4932 38.3001 29.4561 38.2631L18.3512 27.1998C17.6827 26.5338 16.977 26.0158 16.1971 25.5718"/>
        <path d="M11.4436 34.082C14.1306 34.082 16.3089 31.9118 16.3089 29.2348C16.3089 26.5578 14.1306 24.3877 11.4436 24.3877C8.75653 24.3877 6.57825 26.5578 6.57825 29.2348C6.57825 31.9118 8.75653 34.082 11.4436 34.082Z"/>
        <path d="M14.7111 49.9585L10.0686 68.607"/>
        <path d="M33.169 45.0718L39 68.6044"/>
    </symbol>

    <symbol id="vakcinaciya" width="71" height="67" viewBox="0 0 71 67" fill="none">
        <path d="M52.3686 48.4242C49.3283 51.4602 44.388 51.4601 41.3477 48.3858L16.7218 23.2531C13.7195 20.1787 13.7196 15.1829 16.7598 12.1086C19.8001 9.07265 24.7404 9.07269 27.7806 12.147L52.4066 37.2797C55.4088 40.3541 55.4088 45.3883 52.3686 48.4242Z"/>
        <path d="M16.7981 12.1069L6.87939 2"/>
        <path d="M55.3723 45.3831L49.4093 51.3638L55.7785 57.8575L61.7416 51.8769L55.3723 45.3831Z"/>
        <path d="M63.8108 60.0771C67.5214 56.3556 69.3911 52.1782 67.987 50.7467C66.5829 49.3151 62.4366 51.1714 58.7261 54.893C55.0155 58.6145 53.1459 62.7919 54.55 64.2234C55.9541 65.655 60.1003 63.7986 63.8108 60.0771Z"/>
        <path d="M39.981 46.9566L42.5651 44.3818"/>
        <path d="M21.2839 27.8954L23.8681 25.2822"/>
        <path d="M29.9449 36.7347L32.5291 34.1216"/>
        <path d="M34.9611 41.8566L41.0036 35.8232"/>
        <path d="M25.6144 32.3189L31.6568 26.2471"/>
        <path d="M7.48682 18.1743C7.7101 18.7023 7.91944 19.2208 8.07764 19.6226C8.16523 19.845 8.23705 20.0306 8.28662 20.1597C8.31134 20.224 8.33132 20.2741 8.34424 20.3081C8.3592 20.359 8.37516 20.4076 8.38916 20.4526L8.51318 20.8911L8.52686 20.8872C8.55675 21.0159 8.57078 21.1269 8.5708 21.2515C8.5708 21.5883 8.43683 21.8673 8.23389 22.0571L7.39307 22.3101C6.90672 22.2276 6.51611 21.7985 6.51611 21.2515C6.51616 20.9887 6.56947 20.7552 6.67725 20.353C6.67778 20.3515 6.67864 20.3497 6.6792 20.3481C6.69132 20.3136 6.70874 20.2621 6.73193 20.1968C6.77845 20.0657 6.84592 19.8777 6.92822 19.6519C7.07748 19.2422 7.27509 18.7127 7.48682 18.1743Z"/>
        <path d="M2.47461 10.251C2.69577 10.7785 2.90371 11.2958 3.06055 11.6973C3.14811 11.9214 3.21997 12.1082 3.26953 12.2383C3.29427 12.3032 3.31326 12.3544 3.32617 12.3887C3.32955 12.3976 3.33246 12.4055 3.33496 12.4121C3.34314 12.437 3.35008 12.4609 3.35742 12.4834L3.49707 12.9746L3.50391 12.9727C3.53976 13.1231 3.55469 13.2405 3.55469 13.374C3.55468 13.7309 3.41045 14.0195 3.20312 14.2139L2.375 14.4688C1.93869 14.3817 1.52638 13.9706 1.5 13.3574C1.50203 13.1008 1.55295 12.9227 1.67285 12.4395C1.68442 12.406 1.70018 12.3618 1.71875 12.3086C1.7653 12.1753 1.83274 11.9843 1.91504 11.7549C2.0646 11.338 2.26237 10.799 2.47461 10.251Z"/>
    </symbol>

    <symbol id="acusherstvo_i_gin" width="59" height="61" viewBox="0 0 59 61" fill="none">
        <path d="M29.7092 16.5748C33.7557 16.5748 37.036 13.3121 37.036 9.28735C37.036 5.26263 33.7557 2 29.7092 2C25.6627 2 22.3823 5.26263 22.3823 9.28735C22.3823 13.3121 25.6627 16.5748 29.7092 16.5748Z"/>
        <path d="M29.7083 20.1528H23.9105C21.1709 20.1528 18.6543 21.737 17.5394 24.24L14.0671 31.8126C13.6848 32.6364 13.0477 33.3334 12.2832 33.8404L3.61835 39.1634C1.9937 40.1456 1.51588 42.2684 2.53527 43.8526C3.5228 45.4051 5.5934 45.8804 7.1862 44.9299L17.1571 38.9099C17.9535 38.4346 18.5906 37.7693 19.0047 36.9455L22.3815 30.5453"/>
        <path d="M19.738 35.522V41.3202C19.738 42.7143 19.0371 44.0133 17.8585 44.7737L10.1812 49.8115C7.792 51.3957 7.18677 54.6275 8.87513 56.9405C9.83081 58.2395 11.3599 58.9999 12.9527 58.9999H29.677"/>
        <path d="M29.7084 20.1528H35.5061C38.2457 20.1528 40.7623 21.737 41.8773 24.24L45.3496 31.8126C45.7319 32.6364 46.369 33.3334 47.1335 33.8404L55.7983 39.1634C57.423 40.1456 57.9008 42.2684 56.8814 43.8526C55.8939 45.4051 53.8233 45.8804 52.2305 44.9299L42.2596 38.9099C41.4632 38.4346 40.8261 37.7693 40.412 36.9455L37.0352 30.5453"/>
        <path d="M39.6782 35.522V41.3202C39.6782 42.7143 40.3791 44.0133 41.5577 44.7737L49.235 49.8115C51.6242 51.3957 52.2294 54.6275 50.5411 56.9405C49.5854 58.2395 48.0563 58.9999 46.4635 58.9999H29.7392H23.9095C21.4885 58.9999 19.4816 57.0356 19.4816 54.5959C19.4816 52.2829 21.2655 50.3819 23.591 50.2234L37.0342 49.2729"/>
        <path d="M32.0319 38.9209C32.2636 38.9209 32.4667 38.9907 32.649 39.1426L32.7262 39.2129C32.9281 39.4137 33.0172 39.6363 33.0172 39.8926C33.0171 40.098 32.9431 40.3154 32.7946 40.4961L32.7262 40.5713L30.2799 43.0039L27.8336 40.5713C27.4906 40.2299 27.4689 39.6547 27.7692 39.2842L27.8336 39.2129C28.0357 39.012 28.2629 38.9209 28.528 38.9209C28.793 38.9209 29.0202 39.012 29.2223 39.2129L30.2799 40.2656L31.3375 39.2129C31.5395 39.012 31.7669 38.921 32.0319 38.9209Z"/>
    </symbol>

    <symbol id="lor_otdelen" width="40" height="61" viewBox="0 0 40 61" fill="none">
        <path d="M3.90689 16.6973C3.90689 16.6973 3.75056 3.93603 19.5054 2.16274C35.2603 0.389462 38.2612 13.6257 38.3863 16.6973C38.5113 19.7689 38.2612 26.2287 37.1671 29.3953C36.073 32.5619 32.4156 37.5967 30.3837 39.4967C24.6319 44.8799 23.1941 49.6297 21.975 52.258C20.7558 54.8862 17.9112 59.0028 12.472 59.0028C7.03282 59.0028 2.96905 53.0813 2 51.023"/>
        <path d="M18.4425 9.16211C18.4425 9.16211 11.3778 15.3686 11.2527 19.0735C11.1277 22.7784 7.31407 25.4067 7.31407 27.0533C7.31407 28.6999 9.90862 31.9931 12.8783 32.4048C15.8479 32.8164 7.15777 37.598 7.31407 39.4662C7.43911 41.3345 5.40723 45.3244 12.8783 47.541"/>
        <path d="M23.8197 14.8271C23.8197 14.8271 27.7584 20.432 27.477 23.5986C27.1957 26.7968 25.4452 31.325 25.664 33.13"/>
    </symbol>

    <symbol id="derma_otdelen" width="62" height="64" viewBox="0 0 62 64" fill="none">
        <path d="M5.72351 39.8738V31.1401H56.9626V39.8738C56.9626 49.0391 49.6146 56.5108 40.528 56.5108H22.1253C21.174 56.5108 20.2227 56.4112 19.3042 56.2783"/>
        <path d="M35.9684 62.1238H26.7179C23.6344 62.1238 21.1413 59.6 21.1413 56.4785H41.5779C41.5451 59.6 39.052 62.1238 35.9684 62.1238Z"/>
        <path d="M31.9999 31.1378L45.7446 13.9694C45.9086 13.7702 45.9742 13.4713 45.9742 13.2057C45.9414 12.9732 45.9414 12.7075 45.9414 12.4751C45.9414 8.45697 49.2217 5.20264 53.2238 5.33547C56.9634 5.43509 60.0469 8.65623 60.0797 12.4419C60.1125 15.5966 58.1115 18.2532 55.356 19.2494C55.0607 19.349 54.7983 19.5815 54.6999 19.9136L50.9275 31.2042"/>
        <path d="M16.4531 45.783C16.5187 46.0155 16.5187 46.2479 16.5515 46.4471C16.5843 47.0449 16.4531 47.6426 16.1579 48.1408C15.7314 48.971 14.977 49.6019 14.0585 49.8675C14.0257 49.8675 13.9928 49.9008 13.9272 49.9008C13.8944 49.9008 13.8288 49.934 13.796 49.934C12.8447 50.1332 11.8934 49.9008 11.1389 49.3362C10.6797 49.0042 10.286 48.5392 10.0564 47.9747C9.95801 47.7755 9.89238 47.543 9.82678 47.3438C9.76117 47.1445 9.76117 46.8789 9.72837 46.6796C9.69557 46.0819 9.82681 45.4841 10.122 44.986C10.5485 44.1558 11.303 43.5249 12.2215 43.2592C12.2543 43.226 12.3199 43.226 12.3527 43.226C12.3855 43.226 12.4511 43.1928 12.4839 43.1928C13.4352 42.9936 14.3865 43.226 15.141 43.7905C15.6002 44.1226 15.9939 44.5875 16.2235 45.152C16.3219 45.3513 16.3875 45.5838 16.4531 45.783Z"/>
        <path d="M10.1208 45.0231C9.72715 44.2261 9.46472 43.1966 9.20229 42.0344C9.16949 41.8351 9.10386 41.6691 9.07105 41.4698C8.31657 38.2819 9.5959 35.2268 10.4488 35.0276C11.3017 34.8283 13.762 36.9536 14.5164 40.1747C14.5493 40.374 14.6148 40.5732 14.6476 40.7393"/>
        <path d="M15.1392 43.8245V43.792"/>
        <path d="M9.20239 42.032C8.97277 41.9656 8.7103 41.866 8.44788 41.7996C5.33154 40.8698 2.28084 41.9324 2.01842 42.7958C1.78879 43.626 3.7242 46.2826 6.84054 47.2125C7.431 47.3785 7.98864 47.5445 8.5135 47.7106C9.07116 47.8434 9.59602 47.9762 10.0553 48.0427"/>
        <path d="M8.51114 47.7134C8.1175 48.0787 7.69106 48.4772 7.23181 48.9089C4.86995 51.167 4.27949 54.4213 4.86995 55.0522C5.49322 55.7164 8.70796 55.2847 11.0698 53.0266C11.2666 52.8606 11.4634 52.6613 11.6275 52.4953C12.546 51.6319 13.3333 50.8017 13.7925 50.0047"/>
        <path d="M20.1924 37.8857C20.7829 37.8525 21.2093 37.9521 21.4062 38.1514C21.9966 38.7823 21.4062 42.0367 19.0443 44.2948C18.6179 44.7265 18.1915 45.125 17.765 45.4903"/>
        <path d="M12.4823 43.2306C12.9415 42.4336 13.7288 41.6034 14.6473 40.74C14.8441 40.574 15.0081 40.3748 15.2049 40.1755C16.1562 39.2457 17.2716 38.648 18.2885 38.2827"/>
        <path d="M16.2224 45.1519C16.7145 45.2183 17.2393 45.3179 17.7642 45.484C18.289 45.6168 18.8467 45.816 19.4371 45.982C22.5535 46.9119 24.5217 49.5685 24.2593 50.3987C23.9968 51.2621 20.9461 52.3579 17.8298 51.3949C17.5673 51.3285 17.3377 51.2288 17.0753 51.1624"/>
        <path d="M11.1372 49.4046V49.3721"/>
        <path d="M11.6299 52.4625C11.6627 52.6617 11.7283 52.8278 11.7611 53.027C12.5156 56.215 15.0086 58.3734 15.8287 58.1742C16.6816 57.9749 17.961 54.9198 17.2065 51.7319C17.1737 51.5327 17.1081 51.3666 17.0753 51.1674C16.8128 50.0383 16.5176 48.9757 16.1568 48.1787"/>
        <path d="M14.6476 22.2716C15.9157 22.2716 16.9438 21.2309 16.9438 19.9471C16.9438 18.6633 15.9157 17.6226 14.6476 17.6226C13.3794 17.6226 12.3513 18.6633 12.3513 19.9471C12.3513 21.2309 13.3794 22.2716 14.6476 22.2716Z"/>
        <path d="M24.6851 17.8561C25.8627 17.8561 26.8174 16.8897 26.8174 15.6976C26.8174 14.5055 25.8627 13.5391 24.6851 13.5391C23.5075 13.5391 22.5529 14.5055 22.5529 15.6976C22.5529 16.8897 23.5075 17.8561 24.6851 17.8561Z"/>
        <path d="M16.9435 7.23159C18.2661 7.23159 19.3382 6.14627 19.3382 4.80744C19.3382 3.46862 18.2661 2.3833 16.9435 2.3833C15.621 2.3833 14.5488 3.46862 14.5488 4.80744C14.5488 6.14627 15.621 7.23159 16.9435 7.23159Z"/>
    </symbol>

    <symbol id="diagnost_otdelen" width="45" height="59" viewBox="0 0 45 59" fill="none">
        <path d="M2.7356 56.6365C2.7356 40.8526 9.11883 33.0214 20.4123 29.3182C31.7057 25.6151 38.089 17.7839 38.089 2"/>
        <path d="M7.64697 56.6365C7.64697 40.8526 14.0302 35.1765 25.3237 31.4734C36.6171 27.7702 43.0004 17.7839 43.0004 2"/>
        <path d="M6.9115 2C6.9115 16.7822 12.5275 24.5831 22.5014 28.5594"/>
        <path d="M32.842 33.5093C38.9184 38.0623 42.2328 45.2865 42.2328 56.6691"/>
        <path d="M2 2C2 16.6304 7.4626 26.2526 17.2523 30.5324"/>
        <path d="M27.717 35.0874C33.9162 39.003 37.3226 45.1344 37.3226 56.6384"/>
        <path d="M10.7167 4.521H38.0296"/>
        <path d="M11.728 9.40869H37.5372"/>
        <path d="M13.816 14.3262H36.3416"/>
        <path d="M16.5149 19.208H34.0995"/>
        <path d="M20.2283 24.1255H29.9873"/>
        <path d="M37.2921 54.5435H12.1581"/>
        <path d="M36.8313 49.6558H13.3237"/>
        <path d="M35.5749 44.7383H15.5659"/>
        <path d="M32.9647 39.8506H19.6765"/>
    </symbol>

    <symbol id="oftal_otdelen" width="69" height="38" viewBox="0 0 69 38" fill="none">
        <path d="M34.5 1.5C37.4818 1.49997 41.0308 2.3959 44.7432 3.87012C48.4371 5.33706 52.1993 7.33857 55.5781 9.45801C58.9585 11.5785 61.9183 13.7942 64.0146 15.6719C65.0664 16.6139 65.8692 17.4424 66.3955 18.1084C66.6591 18.4419 66.829 18.7042 66.9268 18.8945C66.9446 18.9293 66.9549 18.9608 66.9658 18.9854C66.9633 18.9911 66.9618 18.9977 66.959 19.0039C66.8881 19.1614 66.7633 19.3891 66.5674 19.6855C66.177 20.2762 65.5716 21.0428 64.7559 21.9297C63.1282 23.6992 60.7404 25.8636 57.7617 27.9609C51.7887 32.1664 43.587 36 34.5 36C26.0006 36 17.622 33.688 11.4043 30.3076C8.29587 28.6176 5.78168 26.6902 4.06348 24.7061C2.3387 22.7143 1.5 20.7682 1.5 19L1.51172 18.627C1.62787 16.7565 2.61509 14.7976 4.44727 12.8359C6.39461 10.7511 9.1901 8.78345 12.498 7.08398C18.9155 3.78706 26.9913 1.63801 33.8408 1.50684L34.5 1.5Z"/>
        <circle cx="34.5" cy="18.5" r="16"/>
        <circle cx="34" cy="19" r="6.5"/>
    </symbol>

    <symbol id="stomatol_otdelen" width="69" height="64" viewBox="0 0 69 64" fill="none">
        <path d="M39.9601 9.88111V5.00582C39.9601 3.35628 41.2972 2 42.9234 2H47.7298C49.356 2 50.6931 3.35628 50.6931 5.00582V9.88111"/>
        <path d="M45.3444 18.9728C48.6974 18.9728 51.4156 16.2156 51.4156 12.8145C51.4156 9.4134 48.6974 6.65625 45.3444 6.65625C41.9914 6.65625 39.2733 9.4134 39.2733 12.8145C39.2733 16.2156 41.9914 18.9728 45.3444 18.9728Z"/>
        <path d="M10.3272 32.5338C13.6802 32.5338 16.3984 29.7767 16.3984 26.3755C16.3984 22.9744 13.6802 20.2173 10.3272 20.2173C6.97419 20.2173 4.25604 22.9744 4.25604 26.3755C4.25604 29.7767 6.97419 32.5338 10.3272 32.5338Z"/>
        <path d="M48.7409 15.7036L48.572 16.0181L46.9196 17.1021H43.7604L41.8229 15.729L41.8102 15.7036H48.7409Z"/>
        <path d="M31.1044 52.9565C30.2733 52.9565 29.4421 52.6632 28.7916 52.15L8.77124 36.4978C7.07277 35.1415 4.57926 35.4714 3.24216 37.2309L2.8085 37.7808C1.50754 39.5036 1.79664 42.0329 3.53126 43.3892L25.5031 60.5443C26.4065 61.2775 27.5268 61.644 28.6832 61.644H62.7612C63.9537 61.644 65.0017 61.1675 65.7968 60.3611C66.5557 59.5913 67.0616 58.4916 67.0616 57.2819C67.0616 54.8993 65.1463 52.9198 62.7612 52.9198H31.1044V52.9565Z"/>
        <path d="M29.2609 52.3318C29.5862 52.5884 30.0198 52.735 30.4535 52.735L41.0057 52.955C41.6201 52.955 42.2344 52.8083 42.7765 52.5517L48.7392 49.6925C49.6427 49.2527 50.6907 49.1427 51.6664 49.436L63.3751 52.6251C64.5315 52.955 65.7602 52.4418 66.3745 51.3787C67.2057 49.9492 66.5913 48.1163 65.0735 47.4932L50.7991 41.4815C49.6427 41.005 48.3779 41.005 47.2214 41.4449L39.3073 44.5607C39.0543 44.6706 38.7652 44.7073 38.5122 44.7073H32.152C31.4653 44.7073 30.7787 44.4874 30.2367 44.0475L19.323 35.5432C18.6725 35.03 17.8775 34.7734 17.0825 34.7734C15.9983 34.7734 14.9142 35.2866 14.1914 36.203C12.9628 37.8159 13.2519 40.1253 14.8419 41.3716L29.2609 52.3318Z"/>
        <path d="M23.0449 38.3989L36.2352 24.8361C37.247 23.773 38.6564 23.1865 40.1381 23.1865H50.8349C52.2804 23.1865 53.6898 23.773 54.7378 24.8361L63.9168 34.2934C64.7118 35.0998 64.8564 36.3828 64.242 37.3359L59.3634 45.0337"/>
        <path d="M51.8841 31.9478L54.7757 35.1002C55.5348 35.9066 55.6071 37.153 54.9926 38.0694L52.2817 42.0649"/>
        <path d="M28.357 42.5429L37.2469 33.1223C37.6444 32.719 38.331 32.9756 38.331 33.5621V44.7057"/>
    </symbol>



    <symbol id="chirurg_otdelen" width="56" height="63" viewBox="0 0 56 63" fill="none">
        <path d="M13.8918 38.6699C7.34313 38.6699 2 44.0119 2 50.6321V55.2531C2 56.3019 2.84709 57.154 3.88966 57.154H25.751V50.6321C25.7835 44.0119 20.473 38.6699 13.8918 38.6699Z"/>
        <path d="M39.6622 38.6699H35.6874C30.214 38.6699 25.7831 43.1271 25.7831 48.6329V57.154H33.3417"/>
        <path d="M17.9631 32.9404V38.9715"/>
        <path d="M33.603 32.9404V38.9715"/>
        <path d="M40.216 13.3083V19.1419C40.216 27.1385 33.7326 35.9873 25.783 35.9873C17.8335 35.9873 11.35 27.1385 11.35 19.1419V13.21"/>
        <path d="M39.5656 13.21L36.3076 12.8167C29.3354 11.9644 22.2655 11.9644 15.2934 12.8167L12.0353 13.21C11.1231 13.21 10.3737 12.4561 10.3737 11.5383V7.605C10.3737 4.52389 12.8824 2 15.945 2H35.6886C38.7511 2 41.2598 4.52389 41.2598 7.605V11.5383C41.2272 12.4561 40.4779 13.21 39.5656 13.21Z"/>
        <path d="M10.5683 23.0063C9.06961 22.908 7.86414 21.5313 7.86414 19.8269C7.86414 18.1225 9.06961 16.713 10.5683 16.6475"/>
        <path d="M40.9973 23.0063C42.4959 22.908 43.7014 21.5313 43.7014 19.8269C43.7014 18.1225 42.4959 16.713 40.9973 16.6475"/>
        <path d="M27.4777 30.9065H24.1219C22.0042 30.9065 20.2775 29.1692 20.2775 27.0387C20.2775 24.9081 22.0042 23.1709 24.1219 23.1709H27.4777C29.5954 23.1709 31.3222 24.9081 31.3222 27.0387C31.2896 29.1692 29.5628 30.9065 27.4777 30.9065Z"/>
        <path d="M11.8718 23.1709C11.8718 23.1709 15.1298 26.4487 20.2449 27.4648"/>
        <path d="M39.6938 23.1709C39.6938 23.1709 36.4358 26.4487 31.3207 27.4648"/>
        <path d="M31.9738 17.0161C31.9723 17.0194 31.9704 17.0214 31.9689 17.0229C31.9673 17.0245 31.9639 17.0273 31.9581 17.0298C31.9514 17.0326 31.9447 17.0337 31.9415 17.0337C31.9382 17.0336 31.9315 17.0326 31.9249 17.0298C31.9193 17.0274 31.9157 17.0245 31.9142 17.0229C31.9128 17.0214 31.9116 17.0192 31.9103 17.0161L31.9083 17.0083C31.9085 17.0072 31.909 17.0046 31.9103 17.0015C31.9116 16.9984 31.9128 16.9962 31.9142 16.9946C31.9157 16.9931 31.9193 16.9902 31.9249 16.9878C31.9315 16.985 31.9382 16.9839 31.9415 16.9839L31.9581 16.9878C31.9639 16.9902 31.9673 16.993 31.9689 16.9946C31.9704 16.9962 31.9723 16.9981 31.9738 17.0015C31.9751 17.0046 31.9756 17.0073 31.9757 17.0083C31.9757 17.0083 31.9755 17.012 31.9738 17.0161Z"/>
        <path d="M20.3094 17.0161C20.308 17.0194 20.3061 17.0214 20.3046 17.0229C20.303 17.0245 20.2996 17.0273 20.2938 17.0298C20.2871 17.0326 20.2804 17.0337 20.2772 17.0337C20.2739 17.0336 20.2672 17.0326 20.2606 17.0298C20.255 17.0274 20.2514 17.0245 20.2499 17.0229C20.2485 17.0214 20.2473 17.0192 20.246 17.0161L20.244 17.0083C20.2442 17.0072 20.2447 17.0046 20.246 17.0015C20.2473 16.9984 20.2485 16.9962 20.2499 16.9946C20.2514 16.9931 20.255 16.9902 20.2606 16.9878C20.2672 16.985 20.2739 16.9839 20.2772 16.9839L20.2938 16.9878C20.2996 16.9902 20.303 16.993 20.3046 16.9946C20.3061 16.9962 20.308 16.9981 20.3094 17.0015C20.3108 17.0046 20.3112 17.0073 20.3114 17.0083C20.3114 17.0083 20.3112 17.012 20.3094 17.0161Z"/>
        <path d="M38.9792 60.829C36.2751 59.8786 35.9167 54.9298 36.7963 52.4063L42.3024 36.5769C42.8888 34.9054 44.6808 34.0533 46.3098 34.6433L49.4375 35.7575C51.0991 36.3475 51.9461 38.15 51.3597 39.7886L45.8536 55.6181C45.0065 58.1416 41.8137 61.8449 38.9792 60.829Z"/>
        <path d="M50.9701 36.8374C50.9701 36.8374 50.3511 35.4281 51.3936 33.7567C52.4362 32.0853 55.4662 29.3979 54.0978 21.2046C54.0978 21.2046 45.855 23.5643 46.246 31.2332C46.246 31.2332 46.474 34.2811 43.7047 34.9038"/>
        <path d="M44.3225 40.1157L47.8086 41.3613"/>
        <path d="M43.215 43.0288L46.7011 44.2744"/>
        <path d="M42.0754 45.916L45.5941 47.1288"/>
    </symbol>

    <symbol id="analiz" width="76" height="60" viewBox="0 0 76 60" fill="none">
        <path d="M44.3753 32.9143L60.6781 58.0781H16.176L32.4788 32.9143V6.03759L28.4331 2H48.421L44.3753 6.03759V32.9143Z"/>
        <path d="M27.7511 40.2549H49.1008"/>
        <path d="M17.1375 47.4336C15.8558 47.7191 14.4939 47.8007 13.132 47.6375C8.04488 47.0666 2.95771 42.1317 2.15659 36.9929C1.27536 31.2423 4.19941 26.0628 8.76577 23.6157C9.12628 23.4118 9.36671 23.0447 9.36671 22.6369V13.4604H19.7411V22.229C19.7411 22.8815 20.0616 23.4525 20.6224 23.7788C24.4677 25.9404 27.1114 30.1412 27.1114 34.9537"/>
        <path d="M2.95789 30.0146H26.1502"/>
        <path d="M51.4248 37.1104V14.1489H74.0963L71.2924 18.3905V47.2656H58.8751"/>
        <path d="M71.2924 27.3232H51.4248"/>
    </symbol>

    <symbol id="operacionnaya" width="75" height="63" viewBox="0 0 75 63" fill="none">
        <path d="M62.6913 61H12.1087C6.56267 61 2 56.4098 2 50.8303V12.1697C2 6.59018 6.56267 2 12.1087 2H62.6913C68.2373 2 72.8 6.59018 72.8 12.1697V50.8303C72.8 56.4098 68.2373 61 62.6913 61Z"/>
        <path d="M2 31.4794H13.092L19.5033 25.6625L23.7907 36.3862L31.4213 7.53906L33.9387 52.1749L42.946 25.2668L48.8853 37.8503L52.0713 31.4794H62.1407"/>
        <path d="M62.14 29.3818C63.2798 29.3818 64.2189 30.3137 64.2191 31.4824C64.2191 32.6513 63.2799 33.584 62.14 33.584C61.0002 33.5839 60.0609 32.6512 60.0609 31.4824C60.0611 30.3138 61.0004 29.382 62.14 29.3818Z" fill="#141414"/>
    </symbol>

    <symbol id="vrachebnaya_cosmetologiya" width="66" height="63" viewBox="0 0 66 63" fill="none">
        <path d="M23.8103 49.1387C26.847 52.4449 30.5049 54.7072 33.0585 54.7072C35.8882 54.7072 39.477 52.5494 42.3757 49.3475"/>
        <path d="M47.7234 37.203C47.7234 28.7111 41.1669 24.0127 33.0574 24.0127C24.948 24.0127 18.3914 28.7459 18.3914 37.203"/>
        <path d="M47.5844 35.2863C47.5844 35.2863 55.7974 24.0102 45.0308 16.2144"/>
        <path d="M18.5286 35.0815C18.5286 35.0815 13.6629 27.9121 18.5286 18.9677C23.3943 10.0234 30.7445 8.28329 34.4024 7.97007C38.0603 7.65684 44.3063 8.87491 44.6514 14.0257C44.9964 19.1766 44.2027 22.9353 38.6124 25.0931"/>
        <path d="M18.7703 18.547C18.7703 18.547 15.0089 10.7859 24.1881 4.59101C33.3673 -1.6039 41.4768 4.6954 41.0282 9.08056"/>
        <path d="M35.8169 17.2572C35.8169 17.2572 25.982 13.8465 18.0106 20.0066"/>
        <path d="M26.4658 56.4488V51.646"/>
        <path d="M39.6827 51.646V56.4488"/>
        <path d="M2 26.2703L4.07049 48.5442C4.07049 48.5442 5.10575 55.644 12.4905 58.4282C19.8753 61.2125 21.3246 60.7948 22.4979 60.3076C23.6712 59.8203 24.7409 57.3493 22.1528 56.5488C19.5647 55.7484 14.423 50.6671 13.5948 49.7971C12.7321 48.927 12.4905 44.333 13.5948 43.9502C14.699 43.5674 18.4604 46.0732 20.7725 45.4815C23.05 44.8551 23.2226 43.463 21.9112 42.4885C20.5999 41.514 15.4927 38.7994 14.63 38.7646C13.8018 38.7298 11.4898 39.0778 11.4898 39.0778L10.282 26.0615"/>
        <path d="M64.1138 26.2703L62.0434 48.5442C62.0434 48.5442 61.0081 55.644 53.6233 58.4282C46.2386 61.2125 44.7892 60.7948 43.6159 60.3076C42.4427 59.8203 41.3729 57.3493 43.961 56.5488C46.5491 55.7484 51.6909 50.6671 52.5191 49.7971C53.3818 48.927 53.6233 44.333 52.5191 43.9502C51.4148 43.5674 47.6534 46.0732 45.3414 45.4815C43.0293 44.8899 42.8913 43.463 44.2026 42.4885C45.5139 41.514 50.6211 38.7994 51.4838 38.7646C52.312 38.7298 54.6241 39.0778 54.6241 39.0778L55.8319 26.0615"/>
    </symbol>

    <symbol id="proceduri_manipul" width="57" height="55" viewBox="0 0 57 55" fill="none">
        <path d="M4.29545 40.0142C1.23485 43.0976 1.23485 48.0489 4.29545 51.1324C7.35606 54.2158 12.2707 54.2158 15.3313 51.1324"/>
        <path d="M4.29401 40.0144L37.6075 6.45226C36.548 5.38491 36.6658 3.78388 37.7252 2.71654C38.2549 2.18286 38.9612 1.91602 39.6381 1.91602C40.3444 1.91602 41.0212 2.18286 41.5509 2.71654L52.3219 13.5679C53.3813 14.6352 53.3813 16.3548 52.3219 17.4222C51.7922 17.9559 51.0859 18.2227 50.409 18.2227C49.7322 18.2227 49.1436 18.0745 48.6139 17.5408L15.3004 51.1029"/>
        <path d="M22.1562 22.0464H44.1985"/>
        <path d="M50.4086 45.7979C52.9395 45.7979 54.9995 43.7225 54.9995 41.1727C54.9995 40.2832 54.7641 39.5717 54.5286 38.8008L54.7935 39.7496C54.7052 39.3938 54.5875 39.038 54.4698 38.5933C54.4698 38.5933 51.1443 29.9062 50.2614 29.9062C49.3491 29.9062 46.2297 38.7711 46.2297 38.7711C45.9943 39.5717 45.8471 40.2832 45.8471 41.1727C45.8177 43.7225 47.8777 45.7979 50.4086 45.7979ZM50.4086 45.7979C51.3209 45.7979 52.2038 45.5014 52.9395 45.027"/>
    </symbol>

    <symbol id="med_massaj" width="66" height="63" viewBox="0 0 66 63">
        <path d="M7.99331 54.5574C11.3033 54.5574 13.9866 51.8867 13.9866 48.5922C13.9866 45.2977 11.3033 42.627 7.99331 42.627C4.68329 42.627 2 45.2977 2 48.5922C2 51.8867 4.68329 54.5574 7.99331 54.5574Z"/>
        <path d="M5.20477 55.0728H61.4524C62.8646 55.0728 64.0013 56.2041 64.0013 57.6097V58.0211C64.0013 59.4267 62.8646 60.558 61.4524 60.558H5.20477C3.79255 60.558 2.65588 59.4267 2.65588 58.0211V57.6097C2.65588 56.2384 3.79255 55.0728 5.20477 55.0728Z"/>
        <path d="M26.2478 48.2136H40.4733C42.2644 48.2136 43.7455 49.7221 43.7455 51.5734C43.7455 53.4246 42.2988 54.9331 40.4733 54.9331H23.5267C20.0822 54.9331 17.2578 52.019 17.2578 48.4536C17.2578 44.8882 20.0478 41.9741 23.5267 41.9741H58.7288C61.6566 41.9741 63.9988 44.4082 63.9988 47.4251V49.345C63.9988 52.4647 61.4499 55.0359 58.281 55.0359"/>
        <path d="M34.7916 29.9053L31.8983 32.785C31.416 33.265 31.3471 34.0192 31.726 34.5678L34.1716 38.0989C34.3438 38.3389 34.4127 38.6132 34.4127 38.8874V42.0072"/>
        <path d="M47.7061 29.9053L50.5994 32.785C51.0816 33.265 51.1505 34.0192 50.7716 34.5678L48.3261 38.0989C48.1538 38.3389 48.0849 38.6132 48.0849 38.8874V42.0072"/>
        <path d="M54.8363 42.0069V40.2928C54.8363 39.8814 54.9741 39.47 55.1808 39.1271L58.453 34.2247C59.2108 33.0933 59.0386 31.5849 58.1086 30.625L50.5308 22.9113C49.9797 22.3627 49.2563 22.0542 48.4641 22.0542H40.2319"/>
        <path d="M27.7308 42.008V40.2938C27.7308 39.8824 27.593 39.471 27.3863 39.1282L24.1141 34.1915C23.3563 33.0601 23.5286 31.5517 24.4586 30.5917L32.0363 22.8781C32.5874 22.3295 33.3108 22.021 34.103 22.021H42.3352"/>
        <path d="M36.3771 9.61083V4.91405C36.3771 3.30275 37.686 2 39.3048 2H44.0237C45.6426 2 46.9515 3.30275 46.9515 4.91405V9.61083"/>
        <path d="M41.6808 18.3841C44.9908 18.3841 47.6741 15.7134 47.6741 12.4189C47.6741 9.12434 44.9908 6.45361 41.6808 6.45361C38.3708 6.45361 35.6875 9.12434 35.6875 12.4189C35.6875 15.7134 38.3708 18.3841 41.6808 18.3841Z"/>
        <path d="M44.9877 15.293L44.8812 15.4873L43.266 16.5439H40.1517L38.349 15.293H44.9877Z"/>
    </symbol>

    <!-- <symbol id="med_massaj" width="66" height="63" viewBox="0 0 66 63" fill="none">
        <path d="M7.99331 54.5574C11.3033 54.5574 13.9866 51.8867 13.9866 48.5922C13.9866 45.2977 11.3033 42.627 7.99331 42.627C4.68329 42.627 2 45.2977 2 48.5922C2 51.8867 4.68329 54.5574 7.99331 54.5574Z"/>
        <path d="M5.20477 55.0728H61.4524C62.8646 55.0728 64.0013 56.2041 64.0013 57.6097V58.0211C64.0013 59.4267 62.8646 60.558 61.4524 60.558H5.20477C3.79255 60.558 2.65588 59.4267 2.65588 58.0211V57.6097C2.65588 56.2384 3.79255 55.0728 5.20477 55.0728Z"/>
        <path d="M26.2478 48.2136H40.4733C42.2644 48.2136 43.7455 49.7221 43.7455 51.5734C43.7455 53.4246 42.2988 54.9331 40.4733 54.9331H23.5267C20.0822 54.9331 17.2578 52.019 17.2578 48.4536C17.2578 44.8882 20.0478 41.9741 23.5267 41.9741H58.7288C61.6566 41.9741 63.9988 44.4082 63.9988 47.4251V49.345C63.9988 52.4647 61.4499 55.0359 58.281 55.0359"/>
        <path d="M34.7916 29.9053L31.8983 32.785C31.416 33.265 31.3471 34.0192 31.726 34.5678L34.1716 38.0989C34.3438 38.3389 34.4127 38.6132 34.4127 38.8874V42.0072"/>
        <path d="M47.7061 29.9053L50.5994 32.785C51.0816 33.265 51.1505 34.0192 50.7716 34.5678L48.3261 38.0989C48.1538 38.3389 48.0849 38.6132 48.0849 38.8874V42.0072"/>
        <path d="M54.8363 42.0069V40.2928C54.8363 39.8814 54.9741 39.47 55.1808 39.1271L58.453 34.2247C59.2108 33.0933 59.0386 31.5849 58.1086 30.625L50.5308 22.9113C49.9797 22.3627 49.2563 22.0542 48.4641 22.0542H40.2319"/>
        <path d="M27.7308 42.008V40.2938C27.7308 39.8824 27.593 39.471 27.3863 39.1282L24.1141 34.1915C23.3563 33.0601 23.5286 31.5517 24.4586 30.5917L32.0363 22.8781C32.5874 22.3295 33.3108 22.021 34.103 22.021H42.3352"/>
        <path d="M36.3771 9.61083V4.91405C36.3771 3.30275 37.686 2 39.3048 2H44.0237C45.6426 2 46.9515 3.30275 46.9515 4.91405V9.61083"/>
        <path d="M41.6808 18.3841C44.9908 18.3841 47.6741 15.7134 47.6741 12.4189C47.6741 9.12434 44.9908 6.45361 41.6808 6.45361C38.3708 6.45361 35.6875 9.12434 35.6875 12.4189C35.6875 15.7134 38.3708 18.3841 41.6808 18.3841Z"/>
        <path d="M44.9877 15.293L44.8812 15.4873L43.266 16.5439H40.1517L38.349 15.293H44.9877Z"/>
    </symbol> -->

    <!-- <symbol  width="66" height="63" fill="none">
        <path stroke="#141414" stroke-linecap="round" stroke-miterlimit="10" stroke-width="3" d="M7.993 54.557c3.31 0 5.994-2.67 5.994-5.965 0-3.294-2.684-5.965-5.994-5.965-3.31 0-5.993 2.67-5.993 5.965s2.683 5.965 5.993 5.965ZM5.205 55.073h56.247a2.537 2.537 0 0 1 2.55 2.537v.411a2.537 2.537 0 0 1-2.55 2.537H5.205a2.537 2.537 0 0 1-2.55-2.537v-.411a2.56 2.56 0 0 1 2.55-2.537ZM26.248 48.214h14.225c1.791 0 3.273 1.508 3.273 3.36 0 1.85-1.447 3.36-3.273 3.36H23.527c-3.445 0-6.27-2.915-6.27-6.48 0-3.566 2.79-6.48 6.27-6.48h35.202c2.928 0 5.27 2.434 5.27 5.451v1.92c0 3.12-2.55 5.69-5.718 5.69"/>
        <path stroke="#141414" stroke-linecap="round" stroke-miterlimit="10" stroke-width="3" d="m34.792 29.905-2.894 2.88a1.4 1.4 0 0 0-.172 1.783l2.446 3.53c.172.24.24.515.24.79v3.12M47.706 29.905l2.893 2.88a1.4 1.4 0 0 1 .173 1.783l-2.446 3.53a1.33 1.33 0 0 0-.241.79v3.12"/>
        <path stroke="#141414" stroke-linecap="round" stroke-miterlimit="10" stroke-width="3" d="M54.836 42.007v-1.714c0-.412.138-.823.345-1.166l3.272-4.902c.758-1.132.586-2.64-.344-3.6l-7.578-7.714a2.897 2.897 0 0 0-2.067-.857h-8.232"/>
        <path stroke="#141414" stroke-linecap="round" stroke-miterlimit="10" stroke-width="3" d="M27.73 42.008v-1.714c0-.412-.137-.823-.344-1.166l-3.272-4.937c-.758-1.13-.585-2.64.345-3.6l7.577-7.713a2.897 2.897 0 0 1 2.067-.857h8.232M36.377 9.61V4.915A2.918 2.918 0 0 1 39.305 2h4.719a2.918 2.918 0 0 1 2.928 2.914v4.697"/>
        <path stroke="#141414" stroke-linecap="round" stroke-miterlimit="10" stroke-width="3" d="M41.68 18.384c3.31 0 5.994-2.67 5.994-5.965s-2.683-5.965-5.993-5.965c-3.31 0-5.993 2.67-5.993 5.965 0 3.294 2.683 5.965 5.993 5.965Z"/>
        <path d="m44.988 15.293-.107.194-1.615 1.057h-3.114l-1.803-1.251h6.639Z"/>
    </symbol> -->

    <symbol id="oformlenie_spravok" width="46" height="60" viewBox="0 0 46 60" fill="none">
        <path d="M37.2801 57.5931H3.46223C2.65334 57.5931 2 56.9358 2 56.1219V9.10564C2 8.29178 2.65334 7.63442 3.46223 7.63442H17.1823C17.1823 4.53548 19.7023 2 22.7823 2C25.8934 2 28.3823 4.53548 28.3823 7.63442H42.1023C42.9112 7.63442 43.5645 8.29178 43.5645 9.10564V28.294"/>
        <path d="M28.3826 7.63281H34.1381V13.0168H11.707V7.63281H17.1825"/>
        <path d="M18.8017 18.6553H7.63281V29.8928H18.8017V18.6553Z"/>
        <path d="M23.5931 21.498H38.4332"/>
        <path d="M23.5931 27.0396H38.4332"/>
        <path d="M18.8017 36.4351H7.63281V47.6726H18.8017V36.4351Z"/>
        <path d="M23.5931 39.2798H33.2999"/>
        <path d="M23.5931 44.8213H31.0287"/>
    </symbol>









</svg>