<svg width="30" height="30" viewBox="0 0 30 30" fill="none" xmlns="http://www.w3.org/2000/svg">
<path d="M19.6611 7.00312L17.5024 7C15.0772 7 13.5099 8.44892 13.5099 10.6915V12.3936H11.3394C11.1519 12.3936 11 12.5306 11 12.6996V15.1656C11 15.3346 11.1521 15.4715 11.3394 15.4715H13.5099V21.6941C13.5099 21.8631 13.6618 22 13.8493 22H16.6812C16.8687 22 17.0206 21.863 17.0206 21.6941V15.4715H19.5584C19.7459 15.4715 19.8978 15.3346 19.8978 15.1656L19.8989 12.6996C19.8989 12.6184 19.863 12.5407 19.7995 12.4833C19.7359 12.4259 19.6493 12.3936 19.5593 12.3936H17.0206V10.9507C17.0206 10.2572 17.204 9.90518 18.2065 9.90518L19.6607 9.90472C19.8481 9.90472 20 9.7677 20 9.59886V7.30898C20 7.14029 19.8483 7.00343 19.6611 7.00312Z" fill="#878481"/>
<circle cx="15" cy="15" r="14.75" stroke="#878481" stroke-width="0.5"/>
</svg>
