<svg width="30" height="30" viewBox="0 0 30 30" fill="none" xmlns="http://www.w3.org/2000/svg">
<path d="M18.1911 8H12.6323C10.0744 8 8 9.95913 8 12.375V17.625C8 20.0409 10.0744 22 12.6323 22H18.1911C20.7491 22 22.8235 20.0409 22.8235 17.625V12.375C22.8235 9.95913 20.7491 8 18.1911 8ZM21.4338 17.625C21.4338 19.3138 19.9792 20.6875 18.1911 20.6875H12.6323C10.8443 20.6875 9.3897 19.3138 9.3897 17.625V12.375C9.3897 10.6862 10.8443 9.3125 12.6323 9.3125H18.1911C19.9792 9.3125 21.4338 10.6862 21.4338 12.375V17.625Z" fill="#878481"/>
<path d="M15.4117 11.5C13.3651 11.5 11.7058 13.0671 11.7058 15C11.7058 16.9329 13.3651 18.5 15.4117 18.5C17.4582 18.5 19.1176 16.9329 19.1176 15C19.1176 13.0671 17.4582 11.5 15.4117 11.5ZM15.4117 17.1875C14.135 17.1875 13.0955 16.2057 13.0955 15C13.0955 13.7934 14.135 12.8125 15.4117 12.8125C16.6884 12.8125 17.7278 13.7934 17.7278 15C17.7278 16.2057 16.6884 17.1875 15.4117 17.1875Z" fill="#878481"/>
<path d="M19.3957 11.7042C19.6684 11.7042 19.8895 11.4954 19.8895 11.2379C19.8895 10.9803 19.6684 10.7715 19.3957 10.7715C19.1229 10.7715 18.9019 10.9803 18.9019 11.2379C18.9019 11.4954 19.1229 11.7042 19.3957 11.7042Z" fill="#878481"/>
<circle cx="15" cy="15" r="14.75" stroke="#878481" stroke-width="0.5"/>
</svg>
