<svg width="30" height="30" viewBox="0 0 30 30" fill="none" xmlns="http://www.w3.org/2000/svg">
<circle cx="15" cy="15" r="14.75" stroke="#878481" stroke-width="0.5"/>
<path d="M14.2672 18.9742C12.9493 18.8368 11.761 18.5122 10.7437 17.7165C10.6175 17.6175 10.4871 17.5221 10.3719 17.4115C9.92665 16.9839 9.88179 16.4941 10.2341 15.9893C10.5356 15.5574 11.0416 15.4419 11.5675 15.6899C11.6693 15.7379 11.7664 15.7979 11.8593 15.8624C13.7553 17.1651 16.3599 17.2011 18.263 15.921C18.4515 15.7764 18.6531 15.6585 18.8867 15.5983C19.3409 15.4817 19.7644 15.6486 20.0082 16.046C20.2866 16.4998 20.2831 16.9428 19.94 17.2951C19.4137 17.8353 18.7807 18.2261 18.0775 18.4989C17.4125 18.7567 16.6841 18.8865 15.9632 18.9726C16.072 19.091 16.1233 19.1492 16.1913 19.2176C17.1702 20.2011 18.1533 21.1805 19.129 22.1671C19.4614 22.5032 19.5308 22.92 19.3478 23.311C19.1477 23.7383 18.6997 24.0194 18.2605 23.9893C17.9822 23.9701 17.7652 23.8316 17.5724 23.6374C16.8337 22.894 16.0811 22.1644 15.3573 21.407C15.1467 21.1868 15.0454 21.2284 14.8595 21.4196C14.1164 22.1847 13.3611 22.938 12.6014 23.687C12.2603 24.0234 11.8543 24.0839 11.4587 23.8918C11.0382 23.6879 10.7706 23.2587 10.7912 22.8273C10.8055 22.5354 10.949 22.3125 11.1493 22.1126C12.118 21.1453 13.0841 20.1755 14.0505 19.2066C14.1144 19.1421 14.174 19.0738 14.2672 18.9742Z" fill="#878481"/>
<path d="M15.07 15.6047C12.7189 15.5967 10.7911 13.6476 10.8048 11.2928C10.8183 8.91202 12.7474 6.99343 15.1216 7.00002C17.5006 7.00643 19.4101 8.95262 19.3982 11.3582C19.3861 13.7081 17.4449 15.6129 15.07 15.6047ZM17.2067 11.2985C17.2026 10.1293 16.2714 9.19849 15.1045 9.19743C13.9278 9.19618 12.9883 10.1439 12.9974 11.3238C13.0061 12.4886 13.9453 13.4128 15.1154 13.4085C16.2819 13.4044 17.2106 12.4675 17.2067 11.2985Z" fill="#878481"/>
</svg>
