<svg width="30" height="30" viewBox="0 0 30 30" fill="none" xmlns="http://www.w3.org/2000/svg">
<circle cx="15" cy="15" r="14.75" stroke="#D14139" stroke-width="0.5"/>
<path d="M22.5876 19.128C22.5674 19.0868 22.5486 19.0527 22.5311 19.0253C22.2418 18.5324 21.6889 17.9274 20.8727 17.2101L20.8555 17.1937L20.8469 17.1856L20.8381 17.1774H20.8294C20.459 16.8433 20.2244 16.6188 20.1262 16.5038C19.9465 16.2848 19.9062 16.0631 20.0044 15.8384C20.0738 15.6687 20.3345 15.3103 20.7859 14.7626C21.0233 14.4724 21.2113 14.2398 21.3502 14.0646C22.3516 12.8052 22.7858 12.0004 22.6526 11.6499L22.6009 11.568C22.5661 11.5187 22.4764 11.4736 22.3319 11.4325C22.187 11.3914 22.0018 11.3846 21.776 11.412L19.2755 11.4283C19.235 11.4147 19.1772 11.416 19.1018 11.4325C19.0265 11.4489 18.9889 11.4572 18.9889 11.4572L18.9454 11.4777L18.9108 11.5025C18.8819 11.5188 18.85 11.5475 18.8153 11.5886C18.7807 11.6295 18.7518 11.6776 18.7287 11.7323C18.4564 12.3949 18.1469 13.0108 17.7995 13.5802C17.5853 13.9198 17.3886 14.214 17.209 14.4632C17.0296 14.7122 16.8791 14.8957 16.7576 15.0134C16.636 15.1311 16.5262 15.2254 16.4276 15.2967C16.3292 15.368 16.254 15.3981 16.202 15.3871C16.1499 15.376 16.1007 15.3651 16.0542 15.3542C15.9733 15.3049 15.9081 15.2378 15.859 15.153C15.8097 15.0681 15.7765 14.9613 15.7591 14.8326C15.7418 14.7039 15.7316 14.5931 15.7287 14.5C15.726 14.407 15.7272 14.2754 15.7331 14.1057C15.7391 13.9359 15.7418 13.821 15.7418 13.7608C15.7418 13.5527 15.7461 13.3268 15.7547 13.0832C15.7635 12.8395 15.7706 12.6465 15.7765 12.5043C15.7824 12.3619 15.7851 12.2113 15.7851 12.0525C15.7851 11.8937 15.7749 11.7692 15.7547 11.6788C15.7348 11.5885 15.7042 11.5009 15.6638 11.4159C15.6232 11.3311 15.5638 11.2654 15.4858 11.2188C15.4077 11.1723 15.3105 11.1353 15.195 11.1079C14.8881 11.0422 14.4975 11.0067 14.0227 11.0012C12.9461 10.9902 12.2544 11.056 11.9476 11.1984C11.826 11.2585 11.716 11.3407 11.6177 11.4447C11.5135 11.5652 11.4989 11.6309 11.5742 11.6417C11.9215 11.691 12.1674 11.8087 12.3122 11.9949L12.3643 12.0935C12.4049 12.1647 12.4454 12.2907 12.4859 12.4713C12.5264 12.652 12.5525 12.8518 12.564 13.0707C12.5929 13.4705 12.5929 13.8127 12.564 14.0974C12.535 14.3822 12.5077 14.6039 12.4815 14.7627C12.4554 14.9215 12.4164 15.0501 12.3643 15.1486C12.3122 15.2472 12.2775 15.3074 12.2601 15.3293C12.2427 15.3512 12.2282 15.3649 12.2167 15.3704C12.1415 15.3976 12.0632 15.4115 11.9823 15.4115C11.9012 15.4115 11.8028 15.3731 11.6871 15.2965C11.5714 15.2198 11.4513 15.1144 11.3268 14.9802C11.2023 14.8461 11.0619 14.6585 10.9056 14.4176C10.7494 14.1767 10.5873 13.892 10.4194 13.5635L10.2805 13.3253C10.1937 13.172 10.0751 12.9488 9.92461 12.656C9.77401 12.363 9.64091 12.0796 9.52519 11.8058C9.47894 11.6908 9.40945 11.6033 9.31685 11.543L9.27339 11.5183C9.2445 11.4965 9.19812 11.4733 9.1345 11.4485C9.07079 11.4238 9.00432 11.4061 8.9348 11.3952L6.55579 11.4115C6.31268 11.4115 6.14774 11.4636 6.06088 11.5677L6.02612 11.6169C6.00876 11.6443 6 11.6881 6 11.7484C6 11.8086 6.01736 11.8825 6.05212 11.9701C6.39942 12.7422 6.77709 13.4868 7.18514 14.204C7.59319 14.9213 7.94778 15.4991 8.2487 15.9369C8.54967 16.3749 8.85646 16.7884 9.16905 17.177C9.48164 17.5658 9.68856 17.815 9.7898 17.9244C9.89116 18.0341 9.97077 18.1161 10.0286 18.1708L10.2457 18.3679C10.3847 18.4993 10.5887 18.6567 10.8578 18.8401C11.1271 19.0236 11.4251 19.2043 11.7521 19.3824C12.0792 19.5602 12.4598 19.7053 12.894 19.8175C13.3281 19.9298 13.7506 19.9749 14.1616 19.9532H15.1601C15.3626 19.9366 15.516 19.8764 15.6203 19.7724L15.6549 19.7313C15.6781 19.6986 15.6998 19.6478 15.7199 19.5795C15.7402 19.511 15.7503 19.4356 15.7503 19.3536C15.7444 19.1182 15.7633 18.9061 15.8066 18.7172C15.8499 18.5284 15.8992 18.386 15.9544 18.2901C16.0095 18.1943 16.0718 18.1135 16.141 18.048C16.2104 17.9823 16.2599 17.9425 16.2889 17.9288C16.3177 17.915 16.3407 17.9057 16.3581 17.9001C16.497 17.8563 16.6605 17.8987 16.8488 18.0275C17.0369 18.1562 17.2134 18.315 17.3785 18.5039C17.5435 18.6929 17.7417 18.9049 17.9732 19.1403C18.2048 19.3758 18.4073 19.5508 18.5809 19.666L18.7545 19.7645C18.8704 19.8303 19.0209 19.8905 19.2062 19.9453C19.3911 20 19.5532 20.0137 19.6923 19.9863L21.9149 19.9535C22.1348 19.9535 22.3058 19.9191 22.4272 19.8508C22.5487 19.7823 22.621 19.7069 22.6443 19.6249C22.6675 19.5428 22.6687 19.4497 22.6487 19.3455C22.6281 19.2417 22.6078 19.169 22.5876 19.128Z" fill="#D14139"/>
</svg>
