<svg width="30" height="30" viewBox="0 0 30 30" fill="none" xmlns="http://www.w3.org/2000/svg">
<path d="M22.1935 10.5772C21.7914 9.88939 21.355 9.76289 20.4665 9.71478C19.579 9.65687 17.3471 9.63281 15.4136 9.63281C13.4763 9.63281 11.2436 9.65687 10.3569 9.71389C9.4703 9.76289 9.03301 9.8885 8.62722 10.5772C8.21309 11.2641 8 12.4472 8 14.5301C8 14.5319 8 14.5328 8 14.5328C8 14.5346 8 14.5355 8 14.5355V14.5373C8 16.6113 8.21309 17.8033 8.62722 18.4831C9.03301 19.1709 9.46938 19.2956 10.356 19.3535C11.2436 19.4034 13.4763 19.4328 15.4136 19.4328C17.3471 19.4328 19.579 19.4034 20.4675 19.3544C21.356 19.2965 21.7923 19.1718 22.1944 18.484C22.6122 17.8042 22.8235 16.6122 22.8235 14.5382C22.8235 14.5382 22.8235 14.5355 22.8235 14.5337C22.8235 14.5337 22.8235 14.5319 22.8235 14.531C22.8235 12.4472 22.6122 11.2641 22.1935 10.5772ZM13.5588 17.2055V11.8601L18.1911 14.5328L13.5588 17.2055Z" fill="#878481"/>
<circle cx="15" cy="15" r="14.75" stroke="#878481" stroke-width="0.5"/>
</svg>
