<svg xmlns="http://www.w3.org/2000/svg" viewBox="0 0 42 42"><path d="M21,11.72a4.86,4.86,0,1,0-4.88-4.86A4.88,4.88,0,0,0,21,11.72Z" fill="none" stroke="#141414" stroke-linecap="round" stroke-linejoin="round" stroke-width="2"/><path d="M21,14.1H17.13a4.64,4.64,0,0,0-4.24,2.73l-2.32,5.05a3.36,3.36,0,0,1-1.19,1.35L3.61,26.78a2.23,2.23,0,0,0-.73,3.12A2.3,2.3,0,0,0,6,30.62l6.64-4a3.17,3.17,0,0,0,1.23-1.31L16.12,21" fill="none" stroke="#141414" stroke-linecap="round" stroke-linejoin="round" stroke-width="2"/><path d="M14.35,24.35v3.86a2.74,2.74,0,0,1-1.25,2.31L8,33.87a3.35,3.35,0,0,0-.87,4.76A3.41,3.41,0,0,0,9.83,40H21" fill="none" stroke="#141414" stroke-linecap="round" stroke-linejoin="round" stroke-width="2"/><path d="M21,14.1h3.87a4.64,4.64,0,0,1,4.24,2.73l2.32,5.05a3.36,3.36,0,0,0,1.19,1.35l5.77,3.55a2.23,2.23,0,0,1,.73,3.12,2.3,2.3,0,0,1-3.11.72l-6.64-4a3.17,3.17,0,0,1-1.23-1.31L25.88,21" fill="none" stroke="#141414" stroke-linecap="round" stroke-linejoin="round" stroke-width="2"/><path d="M27.65,24.35v3.86a2.74,2.74,0,0,0,1.25,2.31L34,33.87a3.35,3.35,0,0,1,.87,4.76A3.41,3.41,0,0,1,32.17,40h-15a3,3,0,0,1-2.95-2.94,2.91,2.91,0,0,1,2.74-2.91l9-.63" fill="none" stroke="#141414" stroke-linecap="round" stroke-linejoin="round" stroke-width="2"/><path d="M22.55,26.61a.63.63,0,0,1,.41.15l.05,0a.59.59,0,0,1,.2.45.62.62,0,0,1-.15.4l0,.05-1.63,1.63-1.63-1.63a.64.64,0,0,1,0-.85l0-.05a.61.61,0,0,1,.46-.2.63.63,0,0,1,.47.2l.7.7.71-.7A.59.59,0,0,1,22.55,26.61Z" fill="none" stroke="#141414" stroke-width="2"/></svg>