<svg xmlns="http://www.w3.org/2000/svg" viewBox="0 0 42 42"><path d="M24.94,22.52l8.59,13.26H10.07l8.59-13.26V8.35L16.53,6.22H27.07L24.94,8.35Z" fill="none" stroke="#141414" stroke-linecap="round" stroke-linejoin="round" stroke-width="2"/><path d="M16.17,26.38H27.43" fill="none" stroke="#141414" stroke-linecap="round" stroke-linejoin="round" stroke-width="2"/><path d="M10.58,30.17a6.46,6.46,0,0,1-2.11.11,7.22,7.22,0,0,1-5.79-5.61,6.8,6.8,0,0,1,3.49-7.06.58.58,0,0,0,.31-.51V12.26H12v4.62a.92.92,0,0,0,.47.82,6.77,6.77,0,0,1,3.42,5.89" fill="none" stroke="#141414" stroke-linecap="round" stroke-linejoin="round" stroke-width="2"/><path d="M3.11,21H15.33" fill="none" stroke="#141414" stroke-linecap="round" stroke-linejoin="round" stroke-width="2"/><path d="M28.65,24.73V12.62h12l-1.48,2.24V30.08H32.58" fill="none" stroke="#141414" stroke-linecap="round" stroke-linejoin="round" stroke-width="2"/><path d="M39.12,19.57H28.65" fill="none" stroke="#141414" stroke-linecap="round" stroke-linejoin="round" stroke-width="2"/></svg>