<svg xmlns="http://www.w3.org/2000/svg" viewBox="0 0 42 42"><path d="M11.5,25.62a7.69,7.69,0,0,0-7.66,7.7v3a1.22,1.22,0,0,0,1.22,1.22H19.14v-4.2A7.64,7.64,0,0,0,11.5,25.62Z" fill="none" stroke="#141414" stroke-linecap="round" stroke-miterlimit="10" stroke-width="2"/><path d="M28.1,25.62H25.54A6.4,6.4,0,0,0,19.16,32v5.49H24" fill="none" stroke="#141414" stroke-linecap="round" stroke-miterlimit="10" stroke-width="2"/><path d="M14.12,21.93v3.88" fill="none" stroke="#141414" stroke-linecap="round" stroke-miterlimit="10" stroke-width="2"/><path d="M24.2,21.93v3.88" fill="none" stroke="#141414" stroke-linecap="round" stroke-miterlimit="10" stroke-width="2"/><path d="M28.46,9.28V13c0,5.15-4.18,10.85-9.3,10.85S9.87,18.19,9.87,13V9.22" fill="none" stroke="#141414" stroke-linecap="round" stroke-miterlimit="10" stroke-width="2"/><path d="M28,9.22,25.94,9A55.68,55.68,0,0,0,12.41,9l-2.1.25A1.08,1.08,0,0,1,9.24,8.14V5.61A3.61,3.61,0,0,1,12.83,2H25.54a3.62,3.62,0,0,1,3.59,3.61V8.14A1.11,1.11,0,0,1,28,9.22Z" fill="none" stroke="#141414" stroke-linecap="round" stroke-miterlimit="10" stroke-width="2"/><path d="M9.36,15.53a2,2,0,0,1-1.74-2,2,2,0,0,1,1.74-2.05" fill="none" stroke="#141414" stroke-linecap="round" stroke-miterlimit="10" stroke-width="2"/><path d="M29,15.53a2,2,0,0,0,1.74-2A2,2,0,0,0,29,11.43" fill="none" stroke="#141414" stroke-linecap="round" stroke-miterlimit="10" stroke-width="2"/><path d="M20.25,20.62H18.09a2.49,2.49,0,0,1,0-5h2.16a2.48,2.48,0,0,1,2.48,2.49A2.51,2.51,0,0,1,20.25,20.62Z" fill="none" stroke="#141414" stroke-linecap="round" stroke-miterlimit="10" stroke-width="2"/><path d="M10.2,15.64a11.39,11.39,0,0,0,5.39,2.76" fill="none" stroke="#141414" stroke-linecap="round" stroke-miterlimit="10" stroke-width="2"/><path d="M28.12,15.64a11.39,11.39,0,0,1-5.39,2.76" fill="none" stroke="#141414" stroke-linecap="round" stroke-miterlimit="10" stroke-width="2"/><path d="M23.15,11.67h0Z" fill="none" stroke="#141414" stroke-width="2"/><path d="M15.64,11.67h0Z" fill="none" stroke="#141414" stroke-width="2"/><path d="M27.66,39.89c-1.74-.61-2-3.8-1.41-5.43L29.8,24.27A2,2,0,0,1,32.38,23l2,.72a2,2,0,0,1,1.23,2.6L32.09,36.53C31.54,38.16,29.49,40.54,27.66,39.89Z" fill="none" stroke="#141414" stroke-linecap="round" stroke-miterlimit="10" stroke-width="2"/><path d="M35.38,24.44a2.23,2.23,0,0,1,.28-2c.67-1.07,2.62-2.8,1.74-8.08,0,0-5.31,1.52-5.06,6.46a2.23,2.23,0,0,1-1.64,2.36" fill="none" stroke="#141414" stroke-linecap="round" stroke-miterlimit="10" stroke-width="2"/><path d="M31.1,26.55l2.25.8" fill="none" stroke="#141414" stroke-linecap="round" stroke-miterlimit="10" stroke-width="2"/><path d="M30.39,28.42l2.24.81" fill="none" stroke="#141414" stroke-linecap="round" stroke-miterlimit="10" stroke-width="2"/><path d="M29.65,30.28l2.27.79" fill="none" stroke="#141414" stroke-linecap="round" stroke-miterlimit="10" stroke-width="2"/></svg>