<svg xmlns="http://www.w3.org/2000/svg" viewBox="0 0 42 42"><path d="M27.85,11.76a8,8,0,0,1,.89,3.73,8.13,8.13,0,0,1-16.25-.05,8,8,0,0,1,.89-3.68" fill="none" stroke="#141414" stroke-linecap="round" stroke-linejoin="round" stroke-width="2"/><path d="M27.85,11.76H13.35l.52-8.67L15,2.78a20.5,20.5,0,0,1,11-.06l1.38.37Z" fill="none" stroke="#141414" stroke-linecap="round" stroke-linejoin="round" stroke-width="2"/><path d="M17.29,7.06H23.7" fill="none" stroke="#141414" stroke-linecap="round" stroke-linejoin="round" stroke-width="2"/><path d="M20.49,10.29V3.82" fill="none" stroke="#141414" stroke-linecap="round" stroke-linejoin="round" stroke-width="2"/><path d="M2.66,33.34c0-4.09,8.06-7.46,18-7.46S38.5,29.21,38.5,33.32V40H2.66Z" fill="none" stroke="#141414" stroke-linecap="round" stroke-linejoin="round" stroke-width="2"/><path d="M20.61,40,14.36,26.39" fill="none" stroke="#141414" stroke-linecap="round" stroke-linejoin="round" stroke-width="2"/><path d="M20.61,40l6.27-13.61" fill="none" stroke="#141414" stroke-linecap="round" stroke-linejoin="round" stroke-width="2"/></svg>