<svg xmlns="http://www.w3.org/2000/svg" viewBox="0 0 42 42"><path d="M15.34,32.13c1.86,2,4.1,3.4,5.66,3.4,1.73,0,3.93-1.32,5.7-3.28" fill="none" stroke="#141414" stroke-linecap="round" stroke-linejoin="round" stroke-width="2"/><path d="M30,24.83c0-5.2-4-8.07-9-8.07s-9,2.89-9,8.07" fill="none" stroke="#141414" stroke-linecap="round" stroke-linejoin="round" stroke-width="2"/><path d="M29.89,23.65s5-6.9-1.56-11.67" fill="none" stroke="#141414" stroke-linecap="round" stroke-linejoin="round" stroke-width="2"/><path d="M12.11,23.53a9.8,9.8,0,0,1,0-9.86,12.07,12.07,0,0,1,9.71-6.73c2.24-.19,6.06.55,6.27,3.71s-.27,5.45-3.69,6.77" fill="none" stroke="#141414" stroke-linecap="round" stroke-linejoin="round" stroke-width="2"/><path d="M12.26,13.41S10,8.66,15.57,4.87s10.58.07,10.31,2.75" fill="none" stroke="#141414" stroke-linecap="round" stroke-linejoin="round" stroke-width="2"/><path d="M22.69,12.62s-6-2.08-10.9,1.68" fill="none" stroke="#141414" stroke-linecap="round" stroke-linejoin="round" stroke-width="2"/><path d="M17,36.6V33.66" fill="none" stroke="#141414" stroke-linecap="round" stroke-linejoin="round" stroke-width="2"/><path d="M25.05,33.66V36.6" fill="none" stroke="#141414" stroke-linecap="round" stroke-linejoin="round" stroke-width="2"/><path d="M2,18.14,3.27,31.76a8.16,8.16,0,0,0,5.15,6.05c4.52,1.7,5.4,1.45,6.12,1.15a1.2,1.2,0,0,0-.21-2.3c-1.58-.49-4.73-3.6-5.24-4.13s-.67-3.34,0-3.58,3,1.3,4.39.94,1.5-1.24.7-1.83a21.4,21.4,0,0,0-4.45-2.28A17,17,0,0,0,7.81,26l-.74-8" fill="none" stroke="#141414" stroke-linecap="round" stroke-linejoin="round" stroke-width="2"/><path d="M40,18.14,38.73,31.76a8.16,8.16,0,0,1-5.15,6.05c-4.52,1.7-5.4,1.45-6.12,1.15a1.2,1.2,0,0,1,.21-2.3c1.58-.49,4.73-3.6,5.24-4.13s.67-3.34,0-3.58-3,1.3-4.39.94-1.5-1.24-.7-1.83a21.4,21.4,0,0,1,4.45-2.28,17,17,0,0,1,1.92.19l.74-8" fill="none" stroke="#141414" stroke-linecap="round" stroke-linejoin="round" stroke-width="2"/></svg>