<svg xmlns="http://www.w3.org/2000/svg" viewBox="0 0 42 42"><path d="M5.26,25.85V20.29h32.6v5.56A10.53,10.53,0,0,1,27.4,36.43H15.7a11.92,11.92,0,0,1-1.8-.15" fill="none" stroke="#141414" stroke-linecap="round" stroke-linejoin="round" stroke-width="2"/><path d="M24.5,40H18.62a3.57,3.57,0,0,1-3.55-3.59h13A3.6,3.6,0,0,1,24.5,40Z" fill="none" stroke="#141414" stroke-linecap="round" stroke-linejoin="round" stroke-width="2"/><path d="M22,20.29,30.72,9.37a.77.77,0,0,0,.15-.49,3.46,3.46,0,0,1,0-.46,4.5,4.5,0,0,1,4.63-4.54,4.56,4.56,0,0,1,1.35,8.85.64.64,0,0,0-.41.42L34,20.33" fill="none" stroke="#141414" stroke-linecap="round" stroke-linejoin="round" stroke-width="2"/><path d="M12.09,29.61a3.27,3.27,0,0,1,.06.42,1.92,1.92,0,0,1-.25,1.08,2.16,2.16,0,0,1-1.33,1.09s-.05,0-.09,0l-.08,0A2.14,2.14,0,0,1,8,31c-.06-.13-.1-.27-.15-.4a3.27,3.27,0,0,1-.06-.42,1.92,1.92,0,0,1,.25-1.08A2.17,2.17,0,0,1,9.4,28a.12.12,0,0,1,.08,0l.08,0a2.07,2.07,0,0,1,1.69.38,2,2,0,0,1,.69.86A2.26,2.26,0,0,1,12.09,29.61Z" fill="none" stroke="#141414" stroke-linecap="round" stroke-linejoin="round" stroke-width="2"/><path d="M8.06,29.12a8.4,8.4,0,0,1-.58-1.9c0-.13-.07-.23-.09-.36-.48-2,.34-4,.88-4.1S10.38,24,10.86,26c0,.13.06.25.08.36" fill="none" stroke="#141414" stroke-linecap="round" stroke-linejoin="round" stroke-width="2"/><path d="M11.25,28.36v0" fill="none" stroke="#141414" stroke-linecap="round" stroke-linejoin="round" stroke-width="2"/><path d="M7.48,27.22c-.15,0-.32-.11-.48-.15-2-.59-3.93.09-4.09.64S4,29.92,6,30.52c.38.1.73.21,1.07.31A9.2,9.2,0,0,0,8,31" fill="none" stroke="#141414" stroke-linecap="round" stroke-linejoin="round" stroke-width="2"/><path d="M7,30.83l-.82.76C4.72,33,4.35,35.1,4.72,35.5s2.44.15,3.94-1.29A3.92,3.92,0,0,0,9,33.88a8,8,0,0,0,1.38-1.59" fill="none" stroke="#141414" stroke-linecap="round" stroke-linejoin="round" stroke-width="2"/><path d="M14.47,24.58a1,1,0,0,1,.77.17c.38.4,0,2.47-1.5,3.91-.27.27-.55.53-.82.76" fill="none" stroke="#141414" stroke-linecap="round" stroke-linejoin="round" stroke-width="2"/><path d="M9.56,28a8.22,8.22,0,0,1,1.38-1.58c.13-.11.23-.23.36-.36a5.34,5.34,0,0,1,2-1.2" fill="none" stroke="#141414" stroke-linecap="round" stroke-linejoin="round" stroke-width="2"/><path d="M11.94,29.2a6,6,0,0,1,1,.22c.34.08.69.21,1.07.31,2,.59,3.23,2.28,3.06,2.81S15,33.79,13,33.18c-.16,0-.31-.11-.48-.15" fill="none" stroke="#141414" stroke-linecap="round" stroke-linejoin="round" stroke-width="2"/><path d="M8.71,31.91v0" fill="none" stroke="#141414" stroke-linecap="round" stroke-linejoin="round" stroke-width="2"/><path d="M9,33.85c0,.13.06.24.08.36.48,2,2.07,3.4,2.59,3.28s1.36-2.07.88-4.1c0-.13-.06-.23-.09-.36a10.23,10.23,0,0,0-.58-1.9" fill="none" stroke="#141414" stroke-linecap="round" stroke-linejoin="round" stroke-width="2"/><path d="M10.94,14.65a1.48,1.48,0,1,0-1.46-1.48A1.47,1.47,0,0,0,10.94,14.65Z" fill="none" stroke="#141414" stroke-linecap="round" stroke-linejoin="round" stroke-width="2"/><path d="M17.33,11.84A1.37,1.37,0,1,0,16,10.47,1.36,1.36,0,0,0,17.33,11.84Z" fill="none" stroke="#141414" stroke-linecap="round" stroke-linejoin="round" stroke-width="2"/><path d="M12.4,5.08a1.54,1.54,0,1,0-1.52-1.54A1.53,1.53,0,0,0,12.4,5.08Z" fill="none" stroke="#141414" stroke-linecap="round" stroke-linejoin="round" stroke-width="2"/></svg>