<svg xmlns="http://www.w3.org/2000/svg" viewBox="0 0 42 42"><path d="M23,11.2A4.6,4.6,0,1,0,18.4,6.6,4.6,4.6,0,0,0,23,11.2Z" fill="none" stroke="#141414" stroke-linecap="round" stroke-linejoin="round" stroke-width="2"/><path d="M29.61,25.56l-3.44,2.49-1.52,1.1-1.08.78A4.44,4.44,0,0,1,18,29.59l-5.76-5.36a5.46,5.46,0,0,1,6.36-8.78A6.77,6.77,0,0,1,23,13.74c4,0,7.21,3.52,7.21,7.89V25.1L26.15,28l-1.52,1.1a1.82,1.82,0,0,1-1,.31A1.73,1.73,0,0,1,22.47,29a1.71,1.71,0,0,1-.09-2.53l3.73-3.72a.06.06,0,0,0,0-.08l-6.34-6.31a5.64,5.64,0,0,0-1.22-.93" fill="none" stroke="#141414" stroke-linecap="round" stroke-linejoin="round" stroke-width="2"/><path d="M15.83,20.3a2.77,2.77,0,1,0-2.77-2.76A2.77,2.77,0,0,0,15.83,20.3Z" fill="none" stroke="#141414" stroke-linecap="round" stroke-linejoin="round" stroke-width="2"/><path d="M17.7,29.36,15.05,40" fill="none" stroke="#141414" stroke-linecap="round" stroke-linejoin="round" stroke-width="2"/><path d="M28.23,26.57,31.55,40" fill="none" stroke="#141414" stroke-linecap="round" stroke-linejoin="round" stroke-width="2"/></svg>