<svg xmlns="http://www.w3.org/2000/svg" viewBox="0 0 42 42"><path d="M11,11.8s-.1-8.51,10.4-9.69S33.86,9.75,34,11.8s-.09,6.35-.82,8.46A22.31,22.31,0,0,1,28.61,27,21.92,21.92,0,0,0,23,35.5c-.82,1.76-2.71,4.5-6.34,4.5s-6.33-4-7-5.32" fill="none" stroke="#141414" stroke-linecap="round" stroke-linejoin="round" stroke-width="2"/><path d="M20.65,6.77s-4.71,4.14-4.79,6.61-2.63,4.22-2.63,5.32S15,22,16.94,22.27,13.13,25.73,13.23,27s-1.27,3.9,3.71,5.38" fill="none" stroke="#141414" stroke-linecap="round" stroke-linejoin="round" stroke-width="2"/><path d="M24.24,10.55s2.62,3.74,2.43,5.85-1.35,5.15-1.2,6.35" fill="none" stroke="#141414" stroke-linecap="round" stroke-linejoin="round" stroke-width="2"/></svg>