<svg xmlns="http://www.w3.org/2000/svg" viewBox="0 0 42 42"><path d="M5.14,35.5a3.66,3.66,0,1,0-3.67-3.66A3.66,3.66,0,0,0,5.14,35.5Z" fill="none" stroke="#141414" stroke-linecap="round" stroke-miterlimit="10" stroke-width="2"/><path d="M3.43,35.82H37.9a1.56,1.56,0,0,1,1.57,1.55v.25a1.56,1.56,0,0,1-1.57,1.56H3.43a1.56,1.56,0,0,1-1.56-1.56v-.25A1.56,1.56,0,0,1,3.43,35.82Z" fill="none" stroke="#141414" stroke-linecap="round" stroke-miterlimit="10" stroke-width="2"/><path d="M16.33,31.61h8.72a2.06,2.06,0,0,1,0,4.12H14.66a4,4,0,0,1,0-7.94H36.23a3.27,3.27,0,0,1,3.23,3.34V32.3A3.5,3.5,0,0,1,36,35.79" fill="none" stroke="#141414" stroke-linecap="round" stroke-miterlimit="10" stroke-width="2"/><path d="M21.56,20.39l-1.77,1.77a.85.85,0,0,0-.11,1.09l1.5,2.16a.81.81,0,0,1,.15.49v1.91" fill="none" stroke="#141414" stroke-linecap="round" stroke-miterlimit="10" stroke-width="2"/><path d="M29.48,20.39l1.77,1.77a.85.85,0,0,1,.11,1.09l-1.5,2.16a.81.81,0,0,0-.15.49v1.91" fill="none" stroke="#141414" stroke-linecap="round" stroke-miterlimit="10" stroke-width="2"/><path d="M33.85,27.81v-1a1.38,1.38,0,0,1,.21-.72l2-3a1.78,1.78,0,0,0-.22-2.21L31.21,16.1a1.8,1.8,0,0,0-1.27-.52h-5" fill="none" stroke="#141414" stroke-linecap="round" stroke-miterlimit="10" stroke-width="2"/><path d="M17.24,27.81v-1A1.41,1.41,0,0,0,17,26l-2-3a1.78,1.78,0,0,1,.21-2.21l4.64-4.73a1.82,1.82,0,0,1,1.27-.52h5.05" fill="none" stroke="#141414" stroke-linecap="round" stroke-miterlimit="10" stroke-width="2"/><path d="M22.54,8V5.07a1.79,1.79,0,0,1,1.79-1.78h2.89A1.79,1.79,0,0,1,29,5.07V8" fill="none" stroke="#141414" stroke-linecap="round" stroke-miterlimit="10" stroke-width="2"/><path d="M25.79,13.33a3.66,3.66,0,1,0-3.68-3.66A3.67,3.67,0,0,0,25.79,13.33Z" fill="none" stroke="#141414" stroke-linecap="round" stroke-miterlimit="10" stroke-width="2"/><path d="M27.81,11.43l-.06.12-1,.65H24.85l-1.11-.77Z" fill="none" stroke="#141414" stroke-width="2"/></svg>