<svg xmlns="http://www.w3.org/2000/svg" xmlns:xlink="http://www.w3.org/1999/xlink" viewBox="0 0 42 42"><defs><mask id="a" x="22.47" y="16.58" width="19.59" height="19.63" maskUnits="userSpaceOnUse"><rect x="22.77" y="22.72" width="18.99" height="7.35" rx="1.22" transform="translate(-9.2 30.64) rotate(-45.13)" fill="#fff"/></mask></defs><path d="M24.66,38.26H4a.9.9,0,0,1-.89-.9V8.56A.89.89,0,0,1,4,7.66h8.4a3.43,3.43,0,1,1,6.86,0h8.41a.89.89,0,0,1,.89.9V20.31" fill="none" stroke="#141414" stroke-linecap="round" stroke-linejoin="round" stroke-width="2"/><path d="M19.21,7.66h3.53V11H9V7.66h3.35" fill="none" stroke="#141414" stroke-linecap="round" stroke-linejoin="round" stroke-width="2"/><path d="M13.35,14.41H6.51v6.88h6.84Z" fill="none" stroke="#141414" stroke-linecap="round" stroke-linejoin="round" stroke-width="2"/><path d="M16.28,16.15h9.09" fill="none" stroke="#141414" stroke-linecap="round" stroke-linejoin="round" stroke-width="2"/><path d="M16.28,19.54h9.09" fill="none" stroke="#141414" stroke-linecap="round" stroke-linejoin="round" stroke-width="2"/><path d="M13.35,25.3H6.51v6.88h6.84Z" fill="none" stroke="#141414" stroke-linecap="round" stroke-linejoin="round" stroke-width="2"/><path d="M16.28,27h5.95" fill="none" stroke="#141414" stroke-linecap="round" stroke-linejoin="round" stroke-width="2"/><path d="M16.28,30.43h4.55" fill="none" stroke="#141414" stroke-linecap="round" stroke-linejoin="round" stroke-width="2"/><g mask="url(#a)"><rect x="22.77" y="22.72" width="18.99" height="7.35" rx="1.22" transform="translate(-9.2 30.64) rotate(-45.13)" fill="none" stroke="#141414" stroke-width="2"/></g><path d="M22.65,35.75l1.84-4.9,3.37,3.37Z" fill="none" stroke="#141414" stroke-linejoin="round" stroke-width="2"/></svg>