<svg xmlns="http://www.w3.org/2000/svg" viewBox="0 0 42 42"><path d="M21.16,9.53a16.74,16.74,0,0,1,5.94,1.38,39.79,39.79,0,0,1,6.29,3.24,37.65,37.65,0,0,1,4.9,3.61,11.7,11.7,0,0,1,1.38,1.41,4.1,4.1,0,0,1,.31.46s0,0,0,.05h0c0,.09-.12.22-.23.4a12.45,12.45,0,0,1-1.05,1.3,26,26,0,0,1-4.06,3.5,24,24,0,0,1-13.5,4.67A29,29,0,0,1,7.75,26.25,15.31,15.31,0,0,1,3.49,23,5.2,5.2,0,0,1,2,19.69v-.22a5.57,5.57,0,0,1,1.7-3.36,17.25,17.25,0,0,1,4.67-3.34A30,30,0,0,1,20.77,9.54Z" fill="none" stroke="#141414" stroke-linejoin="round" stroke-width="2"/><circle cx="21.16" cy="19.4" r="9.29" fill="none" stroke="#141414" stroke-linejoin="round" stroke-width="2"/><circle cx="20.86" cy="19.69" r="3.77" fill="none" stroke="#141414" stroke-linejoin="round" stroke-width="2"/></svg>