<svg xmlns="http://www.w3.org/2000/svg" viewBox="0 0 42 42"><path d="M34.94,36.83H7.79a5.46,5.46,0,0,1-5.42-5.45V10.62A5.46,5.46,0,0,1,7.79,5.17H34.94a5.47,5.47,0,0,1,5.43,5.45V31.38A5.47,5.47,0,0,1,34.94,36.83Z" fill="none" stroke="#141414" stroke-linecap="round" stroke-linejoin="round" stroke-width="2"/><path d="M2.37,21h6l3.44-3.12,2.3,5.75,4.1-15.48,1.35,24,4.83-14.45,3.19,6.76L29.24,21h5.41" fill="none" stroke="#141414" stroke-linecap="round" stroke-linejoin="round" stroke-width="2"/><path d="M34.65,19.86A1.13,1.13,0,1,1,33.53,21,1.12,1.12,0,0,1,34.65,19.86Z" fill="#141414" stroke="#141414" stroke-width="2"/></svg>