<svg xmlns="http://www.w3.org/2000/svg" viewBox="0 0 42 42"><path d="M3.65,30.08a5.64,5.64,0,0,0,0,8,5.55,5.55,0,0,0,7.91,0" fill="none" stroke="#141414" stroke-linecap="round" stroke-linejoin="round" stroke-width="2"/><path d="M3.64,30.08,27.53,6a1.86,1.86,0,0,1,.08-2.68A2,2,0,0,1,29,2.76a1.92,1.92,0,0,1,1.37.57l7.72,7.78a2,2,0,0,1-1.37,3.34A1.65,1.65,0,0,1,35.42,14L11.54,38" fill="none" stroke="#141414" stroke-linecap="round" stroke-linejoin="round" stroke-width="2"/><path d="M16.45,17.19H32.26" fill="none" stroke="#141414" stroke-linecap="round" stroke-linejoin="round" stroke-width="2"/><path d="M36.71,34.22A3.31,3.31,0,0,0,40,30.91a5.47,5.47,0,0,0-.34-1.7l.19.68c-.06-.26-.15-.51-.23-.83,0,0-2.38-6.23-3-6.23s-2.89,6.35-2.89,6.35a5.8,5.8,0,0,0-.27,1.73A3.27,3.27,0,0,0,36.71,34.22Zm0,0a3.35,3.35,0,0,0,1.81-.55" fill="none" stroke="#141414" stroke-linecap="round" stroke-linejoin="round" stroke-width="2"/></svg>