<svg xmlns="http://www.w3.org/2000/svg" viewBox="0 0 42 42"><path d="M24.3,8.19V5.34A1.76,1.76,0,0,1,26,3.58h2.8a1.75,1.75,0,0,1,1.73,1.76V8.19" fill="none" stroke="#141414" stroke-linecap="round" stroke-linejoin="round" stroke-width="2"/><path d="M27.45,13.5A3.6,3.6,0,1,0,23.9,9.9,3.58,3.58,0,0,0,27.45,13.5Z" fill="none" stroke="#141414" stroke-linecap="round" stroke-linejoin="round" stroke-width="2"/><path d="M7,21.42a3.6,3.6,0,1,0-3.55-3.6A3.57,3.57,0,0,0,7,21.42Z" fill="none" stroke="#141414" stroke-linecap="round" stroke-linejoin="round" stroke-width="2"/><path d="M29.43,11.59l-.1.18-1,.63H26.52l-1.13-.8h4Z" fill="none" stroke="#141414" stroke-width="2"/><path d="M19.13,33.34a2.21,2.21,0,0,1-1.35-.47L6.09,23.73a2.28,2.28,0,0,0-3.23.43l-.25.32A2.37,2.37,0,0,0,3,27.76l12.83,10a3,3,0,0,0,1.86.64h19.9a2.44,2.44,0,0,0,1.77-.75,2.55,2.55,0,0,0-1.77-4.35H19.13Z" fill="none" stroke="#141414" stroke-linecap="round" stroke-linejoin="round" stroke-width="2"/><path d="M18.06,33a1.12,1.12,0,0,0,.69.23l6.17.13a2.46,2.46,0,0,0,1-.23l3.48-1.67a2.36,2.36,0,0,1,1.71-.15L38,33.15a1.54,1.54,0,0,0,1.75-.73A1.59,1.59,0,0,0,39,30.15l-8.34-3.51a2.77,2.77,0,0,0-2.08,0l-4.63,1.82a1.22,1.22,0,0,1-.46.09H19.74a1.73,1.73,0,0,1-1.11-.39l-6.38-5a2.1,2.1,0,0,0-1.31-.45,2.16,2.16,0,0,0-1.31,3.86Z" fill="none" stroke="#141414" stroke-linecap="round" stroke-linejoin="round" stroke-width="2"/><path d="M14.42,24.84l7.71-7.92a3.13,3.13,0,0,1,2.28-1h6.25a3.23,3.23,0,0,1,2.28,1l5.36,5.52a1.45,1.45,0,0,1,.19,1.78l-2.85,4.5" fill="none" stroke="#141414" stroke-linecap="round" stroke-linejoin="round" stroke-width="2"/><path d="M31.27,21.07,33,22.91a1.41,1.41,0,0,1,.12,1.74L31.5,27" fill="none" stroke="#141414" stroke-linecap="round" stroke-linejoin="round" stroke-width="2"/><path d="M17.53,27.26l5.19-5.5a.36.36,0,0,1,.63.26v6.5" fill="none" stroke="#141414" stroke-linecap="round" stroke-linejoin="round" stroke-width="2"/></svg>