<svg xmlns="http://www.w3.org/2000/svg" viewBox="0 0 42 42"><path d="M30.94,29.55a4.41,4.41,0,0,1-6.26,0l-14-14.26a4.53,4.53,0,0,1,0-6.33A4.41,4.41,0,0,1,17,9L31,23.23A4.53,4.53,0,0,1,30.94,29.55Z" fill="none" stroke="#141414" stroke-linecap="round" stroke-linejoin="round" stroke-width="2"/><path d="M10.75,8.94,5.12,3.21" fill="none" stroke="#141414" stroke-linecap="round" stroke-linejoin="round" stroke-width="2"/><path d="M32.64,27.83l-3.38,3.39,3.61,3.69,3.39-3.4Z" fill="none" stroke="#141414" stroke-linecap="round" stroke-linejoin="round" stroke-width="2"/><path d="M37.43,36.17c2.11-2.11,3.17-4.49,2.37-5.3s-3.15.24-5.25,2.35-3.17,4.49-2.37,5.3S35.33,38.28,37.43,36.17Z" fill="none" stroke="#141414" stroke-linecap="round" stroke-linejoin="round" stroke-width="2"/><path d="M23.91,28.72l1.46-1.46" fill="none" stroke="#141414" stroke-linecap="round" stroke-linejoin="round" stroke-width="2"/><path d="M13.3,17.9l1.46-1.48" fill="none" stroke="#141414" stroke-linecap="round" stroke-linejoin="round" stroke-width="2"/><path d="M18.21,22.92l1.47-1.48" fill="none" stroke="#141414" stroke-linecap="round" stroke-linejoin="round" stroke-width="2"/><path d="M21.06,25.83l3.43-3.43" fill="none" stroke="#141414" stroke-linecap="round" stroke-linejoin="round" stroke-width="2"/><path d="M15.75,20.41,19.18,17" fill="none" stroke="#141414" stroke-linecap="round" stroke-linejoin="round" stroke-width="2"/><path d="M5.46,12.39c.13.29.25.59.34.82l.12.3,0,.09,0,.08.07.25h0a.82.82,0,0,1,0,.21.65.65,0,0,1-.19.46l-.48.14a.61.61,0,0,1-.5-.6,1.67,1.67,0,0,1,.1-.51H5a.23.23,0,0,1,0-.09c0-.07.06-.18.11-.31S5.34,12.69,5.46,12.39Z" fill="none" stroke="#141414" stroke-width="2"/><path d="M2.62,7.89c.13.3.24.59.33.82L3.07,9l0,.08h0v.05l.08.27h0a1,1,0,0,1,0,.23.65.65,0,0,1-.2.48l-.47.14a.65.65,0,0,1-.49-.63,2.42,2.42,0,0,1,.09-.52l0-.07c0-.08.07-.19.11-.32Z" fill="none" stroke="#141414" stroke-width="2"/></svg>