<svg width="149" height="149" viewBox="0 0 149 149" fill="none" xmlns="http://www.w3.org/2000/svg">
<g opacity="0.5">
<path d="M74.5 6C112.332 6 143 36.6685 143 74.5C143 112.332 112.332 143 74.5 143C36.6685 143 6 112.332 6 74.5C6 36.6685 36.6685 6 74.5 6ZM120.004 54.7578C117.661 52.4147 113.863 52.4147 111.52 54.7578L67.1885 99.0869L43.9297 75.8271L43.7061 75.6143C41.3508 73.4863 37.7143 73.5574 35.4443 75.8271C33.1012 78.1703 33.1013 81.9693 35.4443 84.3125L62.9463 111.815C65.2893 114.158 69.0885 114.158 71.4316 111.815L120.004 63.2422C122.347 60.899 122.347 57.101 120.004 54.7578Z" stroke="white" stroke-width="12" stroke-linecap="round" stroke-linejoin="round"/>
</g>
</svg>
