<svg width="42" height="42" viewBox="0 0 42 42" fill="none" xmlns="http://www.w3.org/2000/svg">
<path d="M28.9306 11.0669C29.5742 12.2164 29.913 13.5256 29.913 14.9306C29.913 19.6246 25.8817 23.4245 20.9018 23.4245C15.9219 23.4245 11.8906 19.6246 11.8906 14.9306C11.8906 13.5576 12.2294 12.2484 12.8731 11.0669" stroke="#212121" stroke-opacity="0.83" stroke-width="1.79623" stroke-miterlimit="10" stroke-linecap="round" stroke-linejoin="round"/>
<path d="M28.9312 11.0649H12.8398L13.4157 2.06018L14.6692 1.74087C18.6666 0.687118 22.8673 0.655172 26.8648 1.67699L28.3892 2.06018L28.9312 11.0649Z" stroke="#212121" stroke-opacity="0.83" stroke-width="1.79623" stroke-miterlimit="10" stroke-linecap="round" stroke-linejoin="round"/>
<path d="M17.2109 6.18115H24.325" stroke="#212121" stroke-opacity="0.83" stroke-width="1.79623" stroke-miterlimit="10" stroke-linecap="round" stroke-linejoin="round"/>
<path d="M20.7656 9.53283V2.82715" stroke="#212121" stroke-opacity="0.83" stroke-width="1.79623" stroke-miterlimit="10" stroke-linecap="round" stroke-linejoin="round"/>
<path d="M0.980469 33.4492C0.980469 29.2022 9.9239 25.7217 20.8999 25.7217C31.876 25.7217 40.7516 29.1703 40.7516 33.4492V40.3464H29.8095H11.9904H0.980469V33.4492Z" stroke="#212121" stroke-opacity="0.83" stroke-width="1.79623" stroke-miterlimit="10" stroke-linecap="round" stroke-linejoin="round"/>
<path d="M20.8679 40.3467L13.957 26.2329" stroke="#212121" stroke-opacity="0.83" stroke-width="1.79623" stroke-miterlimit="10" stroke-linecap="round" stroke-linejoin="round"/>
<path d="M20.8633 40.3467L27.808 26.2329" stroke="#212121" stroke-opacity="0.83" stroke-width="1.79623" stroke-miterlimit="10" stroke-linecap="round" stroke-linejoin="round"/>
</svg>
