<svg width="25" height="25" viewBox="0 0 25 25" fill="none" xmlns="http://www.w3.org/2000/svg">
<path d="M10.8867 14.4746L14.8595 12.1421L10.8867 9.80957V14.4746Z" fill="#D14139"/>
<path d="M12.4998 0C5.79628 0 0.363281 5.433 0.363281 12.1365C0.363281 18.8401 5.79628 24.2731 12.4998 24.2731C19.2034 24.2731 24.6363 18.8401 24.6363 12.1365C24.6363 5.433 19.2034 0 12.4998 0ZM18.5681 14.3078C18.5681 16.3985 16.4774 16.3985 16.4774 16.3985H8.52226C6.43155 16.3985 6.43155 14.3078 6.43155 14.3078V9.96997C6.43155 7.87926 8.52226 7.87927 8.52226 7.87927H16.4774C18.5681 7.87927 18.5681 9.96997 18.5681 9.96997V14.3078Z" fill="#D14139"/>
</svg>
