<svg width="24" height="23" viewBox="0 0 24 23" fill="none" xmlns="http://www.w3.org/2000/svg">
<path d="M8.94922 1.39284C8.94922 1.8302 9.17892 2.13137 9.45852 2.22728H9.8255V20.2397C9.8255 21.2276 10.63 22.2714 12.056 22.2714C13.482 22.2714 14.3603 21.332 14.3603 20.2397V2.22728H14.6486C14.8671 2.22728 15.304 2.06039 15.304 1.39284C15.304 0.725296 14.8671 0.635139 14.6486 0.673504H9.45852C9.17892 0.731051 8.94922 0.955485 8.94922 1.39284Z" stroke="#CECECE" stroke-width="1.08027" stroke-linejoin="round"/>
<path d="M1.32422 1.39284C1.32422 1.8302 1.55392 2.13137 1.83352 2.22728H2.2005V20.2397C2.2005 21.2276 3.00501 22.2714 4.43099 22.2714C5.85696 22.2714 6.73531 21.332 6.73531 20.2397V2.22728H7.02365C7.24209 2.22728 7.67897 2.06039 7.67897 1.39284C7.67897 0.725296 7.24209 0.635139 7.02365 0.673504H1.83352C1.55392 0.731051 1.32422 0.955485 1.32422 1.39284Z" stroke="#CECECE" stroke-width="1.08027" stroke-linejoin="round"/>
<path d="M16.5742 1.39284C16.5742 1.8302 16.8039 2.13137 17.0835 2.22728H17.4505V20.2397C17.4505 21.2276 18.255 22.2714 19.681 22.2714C21.107 22.2714 21.9853 21.332 21.9853 20.2397V2.22728H22.2736C22.4921 2.22728 22.929 2.06039 22.929 1.39284C22.929 0.725296 22.4921 0.635139 22.2736 0.673504H17.0835C16.8039 0.731051 16.5742 0.955485 16.5742 1.39284Z" stroke="#CECECE" stroke-width="1.08027" stroke-linejoin="round"/>
<path d="M2.59375 12.2962H7.25312M9.66909 15.7084H14.4148M16.8307 7.77734H21.4038" stroke="#CECECE" stroke-width="1.08027"/>
</svg>
