<svg width="25" height="25" viewBox="0 0 25 25" fill="none" xmlns="http://www.w3.org/2000/svg">
<g clip-path="url(#clip0_315_2863)">
<path d="M12.1478 10.0589C13.3067 10.0547 14.2297 9.12374 14.2254 7.96236C14.2212 6.80048 13.2962 5.87599 12.1368 5.875C10.9678 5.87376 10.0341 6.81538 10.043 7.98769C10.0517 9.14485 10.9852 10.0631 12.1478 10.0589Z" fill="#D14139"/>
<path d="M12.1365 0C5.43369 0 0 5.43394 0 12.1365C0 18.8391 5.43369 24.2731 12.1365 24.2731C18.8394 24.2731 24.2731 18.8391 24.2731 12.1365C24.2731 5.43394 18.8394 0 12.1365 0ZM12.1539 3.69075C14.5179 3.6972 16.4153 5.63085 16.4031 8.02091C16.3912 10.3558 14.4628 12.2483 12.1028 12.2403C9.76684 12.2324 7.85106 10.2958 7.86497 7.9561C7.87813 5.59088 9.7949 3.68429 12.1539 3.69075ZM16.942 13.92C16.4193 14.4566 15.79 14.8449 15.0913 15.1159C14.4307 15.3719 13.7069 15.5007 12.9903 15.5867C13.0988 15.7044 13.1497 15.7622 13.2172 15.8298C14.1896 16.8074 15.1668 17.7801 16.1359 18.7604C16.4662 19.0946 16.535 19.5088 16.3532 19.897C16.1548 20.3216 15.7096 20.6007 15.2728 20.5706C14.9962 20.5515 14.7804 20.4142 14.5889 20.2213C13.8549 19.4828 13.107 18.7574 12.3883 18.005C12.1785 17.786 12.0782 17.8277 11.8932 18.0179C11.1549 18.7783 10.4045 19.5265 9.64988 20.2707C9.31093 20.6049 8.90766 20.6655 8.51432 20.4743C8.0964 20.2722 7.8307 19.8453 7.85106 19.416C7.86547 19.1264 8.008 18.9044 8.20715 18.7063C9.16988 17.7455 10.1296 16.7818 11.0896 15.8188C11.1534 15.755 11.2125 15.6872 11.3052 15.5879C9.99579 15.4511 8.81503 15.1288 7.80413 14.3384C7.67848 14.24 7.54911 14.1452 7.43488 14.0349C6.99213 13.6101 6.94768 13.1231 7.29756 12.622C7.59728 12.1929 8.09988 12.0782 8.62259 12.3248C8.7239 12.3722 8.82025 12.4323 8.91262 12.4958C10.7964 13.7903 13.3843 13.8258 15.2755 12.5537C15.4628 12.4107 15.6631 12.293 15.8953 12.2336C16.3463 12.1174 16.7674 12.2835 17.0093 12.6784C17.2861 13.1296 17.2829 13.5696 16.942 13.92Z" fill="#D14139"/>
</g>
<defs>
<clipPath id="clip0_315_2863">
<rect width="24.2731" height="24.2731" fill="white"/>
</clipPath>
</defs>
</svg>
