<svg width="191" height="191" viewBox="0 0 191 191" fill="none" xmlns="http://www.w3.org/2000/svg">
<g opacity="0.5">
<circle cx="95.5" cy="95.5" r="93" stroke="#CECECE" stroke-width="5"/>
<path d="M97.1831 110.121C96.5292 113.693 93.6687 116.661 90.038 116.661V116.661C86.3806 116.661 83.3537 113.665 83.7814 110.033C83.9798 108.347 84.2538 106.838 84.6033 105.505C85.4086 102.568 86.7113 99.892 88.5114 97.476C90.3115 95.0601 92.7038 92.3126 95.6882 89.2335C97.8672 87.007 99.8568 84.9227 101.657 82.9805C103.504 80.9909 104.997 78.8592 106.133 76.5854C107.27 74.2642 107.839 71.493 107.839 68.2718C107.839 65.0032 107.247 62.1846 106.062 59.8161C104.926 57.4475 103.22 55.6237 100.946 54.3447C98.7199 53.0657 95.9487 52.4262 92.6327 52.4262C89.8852 52.4262 87.2798 52.9236 84.8165 53.9184C82.3532 54.9132 80.3636 56.4527 78.8478 58.5371C78.4482 59.0739 78.0997 59.6553 77.8022 60.281C76.2619 63.5203 73.6221 66.5664 70.0353 66.5664V66.5664C66.3665 66.5664 63.3013 63.5142 64.1941 59.9557C64.8539 57.3257 65.9014 54.9343 67.3366 52.7815C69.942 48.9444 73.4475 46.0074 77.853 43.9705C82.2585 41.9335 87.1851 40.915 92.6327 40.915C98.6488 40.915 103.765 42.0046 107.981 44.1836C112.244 46.3627 115.489 49.4892 117.716 53.5631C119.942 57.5896 121.055 62.3741 121.055 67.9165C121.055 72.1799 120.179 76.1117 118.426 79.7119C116.721 83.2647 114.518 86.6044 111.818 89.7309C109.118 92.8574 106.252 95.8417 103.22 98.684C100.615 101.1 98.862 103.824 97.962 106.856C97.6474 107.915 97.3878 109.004 97.1831 110.121ZM82.8269 139.186C82.8269 137.055 83.4901 135.254 84.8165 133.786C86.1429 132.317 88.0614 131.583 90.5721 131.583C93.1301 131.583 95.0723 132.317 96.3987 133.786C97.7251 135.254 98.3883 137.055 98.3883 139.186C98.3883 141.223 97.7251 142.976 96.3987 144.444C95.0723 145.913 93.1301 146.647 90.5721 146.647C88.0614 146.647 86.1429 145.913 84.8165 144.444C83.4901 142.976 82.8269 141.223 82.8269 139.186Z" fill="#CECECE"/>
</g>
</svg>
