<svg width="19" height="20" viewBox="0 0 19 20" fill="none" xmlns="http://www.w3.org/2000/svg">
<path d="M18.7111 17.806L14.0273 13.1029C15.2316 11.7207 15.8914 9.98166 15.8914 8.17124C15.8914 3.94139 12.3269 0.5 7.94571 0.5C3.56452 0.5 0 3.94139 0 8.17124C0 12.4011 3.56452 15.8425 7.94571 15.8425C9.59048 15.8425 11.1579 15.3635 12.4979 14.4543L17.2173 19.1932C17.4146 19.3909 17.6799 19.5 17.9642 19.5C18.2333 19.5 18.4886 19.4009 18.6824 19.2208C19.0942 18.8383 19.1074 18.2039 18.7111 17.806ZM7.94571 2.50119C11.1841 2.50119 13.8186 5.04471 13.8186 8.17124C13.8186 11.2978 11.1841 13.8413 7.94571 13.8413C4.70732 13.8413 2.07279 11.2978 2.07279 8.17124C2.07279 5.04471 4.70732 2.50119 7.94571 2.50119Z" fill="#212121"/>
</svg>
