<svg xmlns="http://www.w3.org/2000/svg" viewBox="0 0 500 500"><path d="M30.73,14.57a8.81,8.81,0,0,1,1,4.12,9,9,0,1,1-17-4.12" fill="none" stroke="#141414" stroke-linecap="round" stroke-linejoin="round" stroke-width="3"/><path d="M30.73,14.57h-16L15.27,5l1.25-.33a22.68,22.68,0,0,1,12.15-.08L30.19,5Z" fill="none" stroke="#141414" stroke-linecap="round" stroke-linejoin="round" stroke-width="3"/><path d="M19.06,9.37h7.08" fill="none" stroke="#141414" stroke-linecap="round" stroke-linejoin="round" stroke-width="3"/><path d="M22.6,13V5.79" fill="none" stroke="#141414" stroke-linecap="round" stroke-linejoin="round" stroke-width="3"/><path d="M2.89,38.42c0-4.52,8.91-8.25,19.84-8.25S42.5,33.85,42.5,38.4v7.38H2.89Z" fill="none" stroke="#141414" stroke-linecap="round" stroke-linejoin="round" stroke-width="3"/><path d="M22.73,45.78l-6.91-15" fill="none" stroke="#141414" stroke-linecap="round" stroke-linejoin="round" stroke-width="3"/><path d="M22.73,45.78l6.92-15" fill="none" stroke="#141414" stroke-linecap="round" stroke-linejoin="round" stroke-width="3"/><path d="M81.72,34.87a5.2,5.2,0,0,1-7.38,0L57.84,18a5.34,5.34,0,0,1,0-7.46,5.21,5.21,0,0,1,7.38,0l16.5,16.84A5.34,5.34,0,0,1,81.72,34.87Z" fill="none" stroke="#141414" stroke-linecap="round" stroke-linejoin="round" stroke-width="3"/><path d="M57.9,10.55,51.25,3.78" fill="none" stroke="#141414" stroke-linecap="round" stroke-linejoin="round" stroke-width="3"/><path d="M83.73,32.84l-4,4L84,41.19l4-4Z" fill="none" stroke="#141414" stroke-linecap="round" stroke-linejoin="round" stroke-width="3"/><path d="M89.38,42.68c2.49-2.5,3.74-5.29,2.8-6.25s-3.72.28-6.2,2.77-3.74,5.3-2.8,6.25S86.9,45.17,89.38,42.68Z" fill="none" stroke="#141414" stroke-linecap="round" stroke-linejoin="round" stroke-width="3"/><path d="M73.42,33.89l1.73-1.73" fill="none" stroke="#141414" stroke-linecap="round" stroke-linejoin="round" stroke-width="3"/><path d="M60.9,21.12l1.73-1.75" fill="none" stroke="#141414" stroke-linecap="round" stroke-linejoin="round" stroke-width="3"/><path d="M66.7,27l1.73-1.75" fill="none" stroke="#141414" stroke-linecap="round" stroke-linejoin="round" stroke-width="3"/><path d="M70.06,30.47l4-4" fill="none" stroke="#141414" stroke-linecap="round" stroke-linejoin="round" stroke-width="3"/><path d="M63.8,24.09l4-4.07" fill="none" stroke="#141414" stroke-linecap="round" stroke-linejoin="round" stroke-width="3"/><path d="M51.66,14.61c.15.35.29.7.39,1s.11.27.14.36l0,.1,0,.1.09.29h0a1,1,0,0,1,0,.24.71.71,0,0,1-.22.54l-.56.17a.71.71,0,0,1-.59-.71,2,2,0,0,1,.11-.6h0l0-.1.13-.37Z" fill="none" stroke="#141414" stroke-width="3"/><path d="M48.3,9.3c.15.36.29.7.39,1s.11.28.14.37a.69.69,0,0,1,0,.1h0v.05l.1.33h0a.88.88,0,0,1,0,.27.75.75,0,0,1-.24.56l-.55.17a.76.76,0,0,1-.59-.75,2.37,2.37,0,0,1,.11-.61l0-.09c0-.09.07-.21.13-.37S48.16,9.67,48.3,9.3Z" fill="none" stroke="#141414" stroke-width="3"/><path d="M117.45,14.52a5.37,5.37,0,1,0-5.4-5.37A5.39,5.39,0,0,0,117.45,14.52Z" fill="none" stroke="#141414" stroke-linecap="round" stroke-linejoin="round" stroke-width="3"/><path d="M117.45,17.15h-4.28a5.13,5.13,0,0,0-4.69,3l-2.56,5.58a3.69,3.69,0,0,1-1.31,1.49l-6.39,3.92a2.49,2.49,0,0,0-.8,3.46,2.54,2.54,0,0,0,3.43.79L108.2,31a3.56,3.56,0,0,0,1.36-1.44l2.49-4.72" fill="none" stroke="#141414" stroke-linecap="round" stroke-linejoin="round" stroke-width="3"/><path d="M110.1,28.48v4.27a3,3,0,0,1-1.38,2.55L103.06,39a3.68,3.68,0,0,0-1,5.25,3.73,3.73,0,0,0,3,1.52h12.32" fill="none" stroke="#141414" stroke-linecap="round" stroke-linejoin="round" stroke-width="3"/><path d="M117.45,17.15h4.27a5.12,5.12,0,0,1,4.69,3L129,25.75a3.64,3.64,0,0,0,1.32,1.49l6.38,3.92a2.48,2.48,0,0,1,.8,3.46,2.54,2.54,0,0,1-3.43.79L126.7,31a3.58,3.58,0,0,1-1.37-1.44l-2.48-4.72" fill="none" stroke="#141414" stroke-linecap="round" stroke-linejoin="round" stroke-width="3"/><path d="M124.79,28.48v4.27a3,3,0,0,0,1.39,2.55L131.83,39a3.68,3.68,0,0,1,1,5.25,3.75,3.75,0,0,1-3,1.52H113.17a3.24,3.24,0,0,1-.23-6.47l9.9-.7" fill="none" stroke="#141414" stroke-linecap="round" stroke-linejoin="round" stroke-width="3"/><path d="M119.16,31a.63.63,0,0,1,.45.17l.06.05a.67.67,0,0,1,.21.5.68.68,0,0,1-.16.44l0,.06L117.87,34l-1.8-1.79a.72.72,0,0,1,0-1l0-.05a.67.67,0,0,1,.51-.22.7.7,0,0,1,.51.22l.78.77.78-.77A.68.68,0,0,1,119.16,31Z" fill="none" stroke="#141414" stroke-width="3"/><path d="M152.81,14.61S152.7,5.2,164.3,3.9s13.82,8.44,13.92,10.71-.1,7-.9,9.35a24.65,24.65,0,0,1-5,7.45,24.18,24.18,0,0,0-6.2,9.4c-.89,1.93-3,5-7,5s-7-4.37-7.71-5.88" fill="none" stroke="#141414" stroke-linecap="round" stroke-linejoin="round" stroke-width="3"/><path d="M163.52,9.05s-5.2,4.58-5.3,7.31-2.9,4.66-2.9,5.88,1.91,3.64,4.1,3.94-4.21,3.83-4.1,5.2-1.4,4.32,4.1,5.95" fill="none" stroke="#141414" stroke-linecap="round" stroke-linejoin="round" stroke-width="3"/><path d="M167.48,13.23s2.91,4.13,2.7,6.46-1.5,5.69-1.34,7" fill="none" stroke="#141414" stroke-linecap="round" stroke-linejoin="round" stroke-width="3"/><path d="M194.4,30.14V24h36v6.14a11.62,11.62,0,0,1-11.55,11.69H205.93a14.29,14.29,0,0,1-2-.16" fill="none" stroke="#141414" stroke-linecap="round" stroke-linejoin="round" stroke-width="3"/><path d="M215.66,45.78h-6.5a3.94,3.94,0,0,1-3.92-4h14.37A4,4,0,0,1,215.66,45.78Z" fill="none" stroke="#141414" stroke-linecap="round" stroke-linejoin="round" stroke-width="3"/><path d="M212.87,24l9.67-12.07a.9.9,0,0,0,.16-.53,3,3,0,0,1,0-.52,5,5,0,0,1,5.12-5,5.05,5.05,0,0,1,1.5,9.79.73.73,0,0,0-.46.46L226.18,24" fill="none" stroke="#141414" stroke-linecap="round" stroke-linejoin="round" stroke-width="3"/><path d="M201.94,34.29a2.82,2.82,0,0,1,.07.47,2.12,2.12,0,0,1-.28,1.19,2.43,2.43,0,0,1-1.47,1.21l-.09,0-.1,0a2.32,2.32,0,0,1-1.86-.42,2.19,2.19,0,0,1-.76-1,4,4,0,0,1-.17-.44c0-.14,0-.33-.07-.47a2.12,2.12,0,0,1,.28-1.19A2.39,2.39,0,0,1,199,32.52s.07,0,.09,0l.09,0a2.3,2.3,0,0,1,1.87.42,2.21,2.21,0,0,1,.76,1A2.6,2.6,0,0,1,201.94,34.29Z" fill="none" stroke="#141414" stroke-linecap="round" stroke-linejoin="round" stroke-width="3"/><path d="M197.49,33.76a10,10,0,0,1-.65-2.11c0-.14-.06-.25-.09-.39-.53-2.24.37-4.39,1-4.53s2.33,1.35,2.86,3.62c0,.14.07.28.09.39" fill="none" stroke="#141414" stroke-linecap="round" stroke-linejoin="round" stroke-width="3"/><path d="M201,32.91v0" fill="none" stroke="#141414" stroke-linecap="round" stroke-linejoin="round" stroke-width="3"/><path d="M196.84,31.65l-.53-.16c-2.19-.65-4.33.09-4.52.7s1.2,2.45,3.39,3.1l1.18.35c.39.1.76.19,1.08.24" fill="none" stroke="#141414" stroke-linecap="round" stroke-linejoin="round" stroke-width="3"/><path d="M196.36,35.65q-.42.38-.9.84c-1.66,1.58-2.08,3.87-1.66,4.32s2.7.16,4.36-1.43a4.59,4.59,0,0,0,.39-.37,8.26,8.26,0,0,0,1.52-1.75" fill="none" stroke="#141414" stroke-linecap="round" stroke-linejoin="round" stroke-width="3"/><path d="M204.57,28.74a1.11,1.11,0,0,1,.85.18c.42.45,0,2.74-1.66,4.32a11.52,11.52,0,0,1-.9.84" fill="none" stroke="#141414" stroke-linecap="round" stroke-linejoin="round" stroke-width="3"/><path d="M199.15,32.5a8.34,8.34,0,0,1,1.52-1.76,3.59,3.59,0,0,0,.39-.39A5.88,5.88,0,0,1,203.23,29" fill="none" stroke="#141414" stroke-linecap="round" stroke-linejoin="round" stroke-width="3"/><path d="M201.78,33.85a5.35,5.35,0,0,1,1.08.23c.37.09.77.23,1.18.35,2.19.65,3.57,2.52,3.39,3.1s-2.33,1.38-4.52.71l-.53-.17" fill="none" stroke="#141414" stroke-linecap="round" stroke-linejoin="round" stroke-width="3"/><path d="M198.21,36.84v0" fill="none" stroke="#141414" stroke-linecap="round" stroke-linejoin="round" stroke-width="3"/><path d="M198.55,39c0,.14.07.25.09.39.53,2.24,2.29,3.76,2.86,3.62s1.5-2.29,1-4.53c0-.14-.07-.25-.09-.39a11,11,0,0,0-.65-2.11" fill="none" stroke="#141414" stroke-linecap="round" stroke-linejoin="round" stroke-width="3"/><path d="M200.67,17.76a1.64,1.64,0,1,0-1.61-1.63A1.63,1.63,0,0,0,200.67,17.76Z" fill="none" stroke="#141414" stroke-linecap="round" stroke-linejoin="round" stroke-width="3"/><path d="M207.73,14.66a1.52,1.52,0,1,0-1.5-1.52A1.51,1.51,0,0,0,207.73,14.66Z" fill="none" stroke="#141414" stroke-linecap="round" stroke-linejoin="round" stroke-width="3"/><path d="M202.29,7.19a1.71,1.71,0,1,0-1.69-1.71A1.7,1.7,0,0,0,202.29,7.19Z" fill="none" stroke="#141414" stroke-linecap="round" stroke-linejoin="round" stroke-width="3"/></svg>